<?xml version="1.0" standalone="no"?>
<!DOCTYPE svg PUBLIC "-//W3C//DTD SVG 1.1//EN" "http://www.w3.org/Graphics/SVG/1.1/DTD/svg11.dtd" >
<svg xmlns="http://www.w3.org/2000/svg" xmlns:xlink="http://www.w3.org/1999/xlink" version="1.1">
<metadata>
Created by FontForge 20150824 at Fri Aug  5 00:52:08 2016
 By Everything Fonts
Copyright (c) International Typeface Corporation 1996.  Portions Copyright (c) Microsoft Corporation 1996.  All rights reserved.
</metadata>
<defs>
<font id="Snap" horiz-adv-x="1024" >
  <font-face 
    font-family="Snap"
    font-weight="400"
    font-stretch="normal"
    units-per-em="2048"
    panose-1="4 4 10 7 6 10 2 2 2 2"
    ascent="1556"
    descent="-492"
    x-height="1057"
    cap-height="1473"
    bbox="-539 -557 2884 2075"
    underline-thickness="383"
    underline-position="-862"
    unicode-range="U+0020-F002"
  />
<missing-glyph horiz-adv-x="1229" 
d="M102 -362v1806h1024v-1806h-1024zM217 -248h795v1577h-795v-1577z" />
    <glyph glyph-name=".notdef" horiz-adv-x="1229" 
d="M102 -362v1806h1024v-1806h-1024zM217 -248h795v1577h-795v-1577z" />
    <glyph glyph-name=".null" horiz-adv-x="0" 
 />
    <glyph glyph-name="nonmarkingreturn" horiz-adv-x="887" 
 />
    <glyph glyph-name="space" unicode=" " horiz-adv-x="887" 
 />
    <glyph glyph-name="exclam" unicode="!" horiz-adv-x="1212" 
d="M977 143q0 -73 -103.5 -114t-291.5 -41q-171 0 -280 44.5t-109 110.5q0 73 106 117.5t283 44.5q179 0 287 -45t108 -117zM1327 1456l-369 -76l-178 -848l224 -118l-793 -29l160 156l-78 815l-285 155z" />
    <glyph glyph-name="quotedbl" unicode="&#x22;" horiz-adv-x="1014" 
d="M893 854l-260 25l-107 551l428 63zM426 854l-260 25l-107 551l426 63z" />
    <glyph glyph-name="numbersign" unicode="#" horiz-adv-x="1849" 
d="M1114 901l-358 4l-62 -362l373 -19zM1804 774l-84 123l-290 2l-3 -389l222 -10l106 174l-8 -510l-102 174l-218 -6l-2 -199l193 -129l-782 41l180 82l24 195l-383 -9l-30 -178l188 -160l-647 23l178 88l8 219l-223 -4l-94 -201l76 578l39 -113l213 -10l16 352l-182 2
l-158 -164l70 590l157 -229l121 6l10 238l-206 98l794 18l-156 -112l-38 -221l352 16l29 225l-138 135l598 -16l-200 -84l-4 -244l229 11l102 204z" />
    <glyph glyph-name="dollar" unicode="$" horiz-adv-x="1634" 
d="M1241 1452l166 -528q-130 119 -237 180t-185 61q-53 0 -83 -27.5t-30 -76.5q0 -83 78 -132.5t281 -88.5q221 -44 312 -119.5t91 -208.5q0 -227 -189.5 -368.5t-518.5 -157.5l43 -152l157 -86l-653 -49l176 123l47 176q-121 18 -237.5 66.5t-233.5 128.5v-228l-164 520
q121 -98 234 -148t213 -50q102 0 160.5 45.5t58.5 124.5q0 87 -56 133t-253 90q-228 50 -323 131t-95 219q0 189 158.5 312.5t404.5 123.5q24 0 55.5 -2t81.5 -8l-22 156l-211 145l729 -45l-205 -96l-76 -211q70 -26 140.5 -63.5t148.5 -90.5z" />
    <glyph glyph-name="percent" unicode="%" horiz-adv-x="1661" 
d="M485 1300q-70 -20 -110.5 -66.5t-40.5 -105.5q0 -3 1 -9t1 -9q68 0 112 42.5t44 109.5q-1 8 -2.5 18.5t-4.5 19.5zM530 1479q91 0 142 -80t51 -223q0 -115 -46 -232t-132 -219q-59 -69 -124.5 -107t-123.5 -38q-86 0 -139.5 73.5t-53.5 196.5q0 128 48 256t135 231
q56 67 121 104.5t122 37.5zM1620 1399l-287 -74l-676 -1233l150 -123l-809 131l293 84l762 1159l-199 152zM1343 324q-2 0 -7.5 1t-8.5 1q-66 0 -113 -45.5t-47 -108.5q0 -10 0.5 -15.5t1.5 -10.5q82 19 128 65.5t46 107.5v5zM1386 883q89 0 140 -76.5t51 -210.5
q0 -119 -47 -237t-135 -224q-56 -66 -120.5 -102.5t-123.5 -36.5q-84 0 -135 72t-51 192q0 132 46.5 261.5t129.5 226.5q53 63 118.5 99t126.5 36z" />
    <glyph glyph-name="ampersand" unicode="&#x26;" horiz-adv-x="1651" 
d="M1618 901l-256 -123q126 -66 188 -146.5t62 -178.5q0 -97 -52 -180.5t-151 -145.5q-116 -73 -264.5 -112.5t-310.5 -39.5q-364 0 -576.5 130.5t-212.5 351.5q0 147 107 245.5t299 128.5q-161 26 -254 111t-93 205q0 164 162.5 262t438.5 98q164 0 303 -44t249 -132
l228 119l-371 -442q-38 151 -124.5 230t-213.5 79q-99 0 -151 -46t-52 -134q0 -107 43 -163t125 -56h19t12 2l66 182l133 -547l-144 156q-87 -28 -134.5 -91t-47.5 -151q0 -108 64.5 -166.5t183.5 -58.5q154 0 255 80.5t101 201.5q0 87 -45.5 165t-140.5 155z" />
    <glyph glyph-name="quotesingle" unicode="'" horiz-adv-x="547" 
d="M426 854l-260 25l-107 551l426 63z" />
    <glyph glyph-name="parenleft" unicode="(" horiz-adv-x="887" 
d="M156 1614l716 39q-129 -238 -191.5 -478.5t-62.5 -506.5q0 -277 61 -509.5t185 -434.5l-745 26l272 117q-139 151 -205.5 327.5t-66.5 391.5q0 245 85.5 465t266.5 442z" />
    <glyph glyph-name="parenright" unicode=")" horiz-adv-x="887" 
d="M768 1606l-272 -119q138 -151 205 -328t67 -391q0 -245 -85.5 -465.5t-266.5 -441.5l315 -121l-717 -39q130 238 192 478.5t62 506.5q0 274 -60.5 507.5t-184.5 436.5z" />
    <glyph glyph-name="asterisk" unicode="*" horiz-adv-x="1151" 
d="M993 1264l-344 -136l342 -41l-184 -315l-205 297l2 -364l-287 151l162 168l-315 -10l69 278l295 -129l-198 287l311 96l-10 -260l174 187z" />
    <glyph glyph-name="plus" unicode="+" horiz-adv-x="1706" 
d="M735 1221h238v-494h479v-231h-479v-496h-238v496h-481v231h481v494z" />
    <glyph glyph-name="comma" unicode="," horiz-adv-x="825" 
d="M229 -479l125 485q-104 18 -165.5 62t-61.5 100q0 66 82.5 115t202.5 49q118 0 201 -49.5t83 -114.5q0 -25 -14 -55.5t-43 -67.5z" />
    <glyph glyph-name="hyphen" unicode="-" horiz-adv-x="780" 
d="M711 860l-27 -307l-551 -107l-63 426z" />
    <glyph glyph-name="period" unicode="." horiz-adv-x="825" 
d="M696 170q0 -66 -84 -118t-200 -52q-118 0 -201.5 51.5t-83.5 118.5q0 65 82.5 113.5t202.5 48.5q119 0 201.5 -49t82.5 -113z" />
    <glyph glyph-name="slash" unicode="/" horiz-adv-x="1108" 
d="M1067 1524l-940 -1760l-96 99l815 1835z" />
    <glyph glyph-name="zero" unicode="0" horiz-adv-x="1726" 
d="M913 1228q-29 -44 -44 -92t-15 -96q0 -89 69 -155t162 -66q73 0 140 40.5t94 101.5q-73 126 -176.5 194.5t-229.5 72.5zM1673 702q0 -98 -25.5 -187.5t-76.5 -170.5q-114 -175 -318.5 -279t-437.5 -104q-120 0 -226 31t-198 92q-159 106 -247.5 268.5t-88.5 349.5
q0 144 54.5 273t158.5 231q129 128 301.5 197.5t360.5 69.5q156 0 283 -50.5t231 -152.5q106 -105 167.5 -257t61.5 -311z" />
    <glyph glyph-name="one" unicode="1" horiz-adv-x="1012" 
d="M961 -20l-967 45l276 116l-34 957l-316 26l1024 379l-239 -1351z" />
    <glyph glyph-name="two" unicode="2" horiz-adv-x="1536" 
d="M1516 756l-113 -705l-1489 -92l694 862q84 103 109.5 158.5t25.5 112.5q0 58 -35.5 92.5t-97.5 34.5q-111 0 -217.5 -98t-204.5 -290l-221 590l197 -213q170 143 332.5 211t337.5 68q259 0 414 -116.5t155 -309.5q0 -149 -78.5 -259t-290.5 -241l-561 -344l889 229z" />
    <glyph glyph-name="three" unicode="3" horiz-adv-x="1651" 
d="M76 1438l133 -146q185 101 367.5 152t359.5 51q243 0 398 -95t155 -239q0 -105 -103 -194t-282 -135q10 1 21 1.5t34 0.5q198 0 329.5 -106t131.5 -261q0 -226 -204 -363t-548 -137q-195 0 -362.5 32.5t-308.5 96.5v-131l-232 572q168 -161 345 -245.5t343 -84.5
q133 0 213 69.5t80 184.5q0 81 -42 125.5t-120 44.5q-42 0 -82.5 -15.5t-78.5 -46.5l-41 -172l-144 494l129 -90q194 42 277.5 108t83.5 174q0 80 -50 124t-141 44q-132 0 -259.5 -100.5t-231.5 -286.5z" />
    <glyph glyph-name="four" unicode="4" horiz-adv-x="1774" 
d="M926 774l-11 359l-383 -453zM1726 1075l-10 -786l-84 264l-295 -72l80 -377l195 -96l-928 -43l170 162l47 315l-938 -63l766 1028l907 74l-161 -99l-119 -596l291 121z" />
    <glyph glyph-name="five" unicode="5" horiz-adv-x="1696" 
d="M524 1208l-135 -297q65 27 148.5 39.5t212.5 12.5q414 0 646 -133.5t232 -368.5q0 -226 -210 -362t-564 -136q-192 0 -355.5 57t-301.5 173l-136 -115l140 510q109 -167 218.5 -243.5t237.5 -76.5q117 0 182.5 54.5t65.5 150.5q0 122 -89.5 188t-254.5 66
q-144 0 -267.5 -28.5t-227.5 -86.5l167 869l1141 -76l53 106l70 -628l-96 145z" />
    <glyph glyph-name="six" unicode="6" horiz-adv-x="1722" 
d="M666 508q36 -32 78 -48t90 -16q90 0 155.5 62.5t65.5 146.5q0 32 -13.5 57.5t-42.5 47.5q-122 -43 -205 -105t-128 -145zM1577 1497l-279 -383q-86 78 -179.5 116t-196.5 38q-158 0 -268.5 -105t-110.5 -254q0 -41 11 -75.5t34 -63.5q90 94 207 139t268 45
q275 0 446.5 -120.5t171.5 -309.5q0 -76 -37.5 -154t-107.5 -145q-134 -126 -310.5 -194t-371.5 -68q-184 0 -333.5 55t-256.5 162q-97 98 -151 229t-54 273q0 152 63.5 293.5t184.5 259.5q132 129 275.5 193.5t298.5 64.5q106 0 221.5 -31t240.5 -94z" />
    <glyph glyph-name="seven" unicode="7" horiz-adv-x="1589" 
d="M1597 1481l-510 -1387l189 -141l-1118 61l260 97l684 1019l-776 -262l-78 -309l-217 916l155 -144z" />
    <glyph glyph-name="eight" unicode="8" horiz-adv-x="1741" 
d="M1118 791q-28 -30 -41.5 -61.5t-13.5 -67.5q0 -80 67 -137.5t160 -57.5q41 0 77 19t69 59q-59 90 -139 152t-179 94zM530 1223q27 -44 61.5 -64t82.5 -20q66 0 118 47.5t52 105.5q0 18 -7.5 34t-23.5 32q-89 -11 -159.5 -45t-123.5 -90zM1161 965q242 -37 385.5 -164
t143.5 -301q0 -237 -234 -383t-618 -146q-364 0 -575.5 134t-211.5 362q0 170 140.5 303t377.5 184q-116 48 -174.5 110t-58.5 138q0 125 150.5 215t371.5 90q230 0 377 -85t147 -214q0 -69 -56 -131t-165 -112z" />
    <glyph glyph-name="nine" unicode="9" horiz-adv-x="1700" 
d="M1137 901q-35 54 -85 83.5t-106 29.5q-91 0 -155 -54t-64 -131q0 -24 8 -45.5t22 -37.5q132 7 227 46t153 109zM307 -37l-174 483q135 -113 280 -171t294 -58q199 0 334 108.5t135 264.5q0 7 -2 32t-3 37q-146 -83 -297.5 -126.5t-293.5 -43.5q-243 0 -397 123.5
t-154 313.5q0 90 39 177t112 159q119 115 280 175t353 60q185 0 347.5 -64t285.5 -186q97 -96 148 -214t51 -251q0 -153 -64.5 -303t-179.5 -264q-123 -121 -273 -183.5t-319 -62.5q-131 0 -254 40.5t-240 121.5z" />
    <glyph glyph-name="colon" unicode=":" horiz-adv-x="825" 
d="M696 170q0 -66 -84 -118t-200 -52q-118 0 -201.5 51.5t-83.5 118.5q0 65 82.5 113.5t202.5 48.5q119 0 201.5 -49t82.5 -113zM696 688q0 -66 -83 -117t-201 -51q-119 0 -202 50.5t-83 117.5q0 65 83 114.5t202 49.5q118 0 201 -49.5t83 -114.5z" />
    <glyph glyph-name="semicolon" unicode=";" horiz-adv-x="825" 
d="M229 -479l125 485q-104 18 -165.5 62t-61.5 100q0 66 82.5 115t202.5 49q118 0 201 -49.5t83 -114.5q0 -25 -14 -55.5t-43 -67.5zM696 688q0 -66 -83 -117t-201 -51q-119 0 -202 50.5t-83 117.5q0 65 83 114.5t202 49.5q118 0 201 -49.5t83 -114.5z" />
    <glyph glyph-name="less" unicode="&#x3c;" 
d="M954 1329v-362l-499 -277l499 -274v-363l-886 486v307z" />
    <glyph glyph-name="equal" unicode="=" horiz-adv-x="1706" 
d="M254 502h1198v-230h-1198v230zM254 950h1198v-231h-1198v231z" />
    <glyph glyph-name="greater" unicode="&#x3e;" 
d="M68 53v365l501 274l-499 277l-2 360l886 -485v-305z" />
    <glyph glyph-name="question" unicode="?" horiz-adv-x="1737" 
d="M1180 143q0 -64 -113.5 -109.5t-284.5 -45.5q-159 0 -273 48t-114 107q0 65 111.5 113.5t275.5 48.5q168 0 283 -49t115 -113zM23 1446l157 -98q178 83 355.5 124t359.5 41q205 0 371.5 -55.5t275.5 -159.5q52 -50 80.5 -112.5t28.5 -126.5q0 -185 -150 -292.5
t-420 -115.5l-73 -190l221 -123l-805 78l156 84l-64 288q316 25 442.5 92t126.5 201q0 101 -61 156t-174 55q-150 0 -302.5 -116t-291.5 -336z" />
    <glyph glyph-name="at" unicode="@" horiz-adv-x="1935" 
d="M1036 905q-14 -13 -21 -30t-7 -39q0 -52 31.5 -85.5t80.5 -33.5q18 0 32.5 6t27.5 18q-24 60 -59 100t-85 64zM1786 -78l-125 123q-164 -58 -320.5 -87.5t-304.5 -29.5q-222 0 -412 61.5t-323 174.5q-133 114 -197.5 252.5t-64.5 308.5q0 368 274.5 587.5t739.5 219.5
q388 0 620 -169.5t232 -447.5q0 -271 -175 -416t-540 -177l57 223q-72 -109 -156 -164t-180 -55q-140 0 -227.5 105t-87.5 276q0 182 89.5 300.5t223.5 118.5q106 0 188 -51t150 -160l-45 211l311 -28l-104 -47l27 -551q109 47 161 138.5t52 238.5q0 214 -149.5 325
t-438.5 111q-296 0 -457.5 -151.5t-161.5 -428.5q0 -301 165.5 -468t463.5 -167q145 0 304.5 50t326.5 147z" />
    <glyph glyph-name="A" unicode="A" horiz-adv-x="1741" 
d="M1038 791l-139 399l-135 -492zM1845 217l-872 -270l223 299l-63 221l-324 -25l-94 -258l141 -110l-948 -68l231 172l307 1194l-174 113l1176 -39l-274 -98l481 -1074z" />
    <glyph glyph-name="B" unicode="B" horiz-adv-x="1591" 
d="M575 303q153 90 227.5 163t74.5 132q0 38 -30.5 63t-76.5 25q-32 0 -72 -8.5t-84 -24.5zM647 979q112 13 181 51.5t69 85.5q0 68 -73 107.5t-203 42.5zM1087 860q225 -14 342 -100t117 -238q0 -212 -168 -322.5t-561 -152.5l-883 -92l416 195l-200 1210l-287 131
l1022 -53q295 -15 411.5 -75t116.5 -189q0 -109 -80.5 -186.5t-245.5 -127.5z" />
    <glyph glyph-name="C" unicode="C" horiz-adv-x="1610" 
d="M1569 727l-107 -694l-41 284q-145 -172 -319.5 -262t-364.5 -90q-125 0 -243 51.5t-213 149.5q-113 114 -173.5 255.5t-60.5 289.5q0 205 87 374.5t247 276.5q107 71 230.5 106t267.5 35q131 0 244 -41t212 -125l58 166l102 -547q-66 96 -156 145.5t-194 49.5
q-120 0 -193 -70.5t-73 -185.5q0 -122 91 -204.5t228 -82.5q84 0 175 29.5t196 89.5z" />
    <glyph glyph-name="D" unicode="D" horiz-adv-x="1587" 
d="M582 489q135 74 207.5 175.5t72.5 218.5q0 102 -49.5 188.5t-146.5 155.5zM164 1321l-273 182l1037 -110q284 -31 448 -201.5t164 -435.5q0 -330 -233.5 -520.5t-673.5 -221.5l-742 -49l431 160z" />
    <glyph glyph-name="E" unicode="E" horiz-adv-x="1661" 
d="M1626 616l-90 -661l-1647 72l433 151l-154 1098l-279 108l1567 107l98 -459l-163 168l-482 -2l-73 -305l344 80l102 157l39 -692l-109 172l-305 41l-121 -325l574 -72z" />
    <glyph glyph-name="F" unicode="F" horiz-adv-x="1546" 
d="M1577 766l-229 391l-594 -41l71 -328l254 109l107 150l190 -838l-213 295l-358 20l113 -442l202 -133l-1190 84l226 149l123 1002l-349 166l1520 143z" />
    <glyph glyph-name="G" unicode="G" horiz-adv-x="1804" 
d="M1774 860l-148 -141l60 -520q-166 -123 -344 -183.5t-373 -60.5q-159 0 -308 46t-274 134q-164 117 -253 279.5t-89 345.5q0 171 79.5 312.5t229.5 238.5q140 91 310.5 136.5t371.5 45.5q149 0 282.5 -35.5t242.5 -103.5l49 135l78 -543q-129 154 -261.5 226.5
t-283.5 72.5q-204 0 -328.5 -135t-124.5 -358q0 -198 115 -321.5t299 -123.5q4 0 25 1.5t36 2.5l88 291l-211 -24l-65 -123l-27 612l103 -143z" />
    <glyph glyph-name="H" unicode="H" horiz-adv-x="1802" 
d="M1812 1444l-258 -133l80 -1106l174 -109l-1007 -37l155 125l17 371l-283 -43v-438l150 -99l-850 60l139 98l117 1204l-236 72l748 107l-150 -127l49 -467l261 -97l67 527l-127 121z" />
    <glyph glyph-name="I" unicode="I" horiz-adv-x="1108" 
d="M1249 51l-1226 -119l206 154l99 1118l-351 269l1207 -101l-449 -129l203 -995z" />
    <glyph glyph-name="J" unicode="J" horiz-adv-x="1667" 
d="M1677 1513l-452 -260q189 -113 291 -269t102 -331q0 -304 -250.5 -493t-658.5 -189q-306 0 -497.5 122t-191.5 308q0 145 98.5 241t301.5 149l-397 59l796 106q-88 -71 -132 -143t-44 -145q0 -81 48 -130t128 -49q123 0 194.5 90t71.5 246q0 130 -39.5 232.5
t-123.5 189.5l-510 103z" />
    <glyph glyph-name="K" unicode="K" horiz-adv-x="1708" 
d="M1849 -23l-796 97l159 104l-464 477l-52 -10l109 -532l168 -179l-1006 113l180 133l95 1088l-195 125l805 98l-225 -174l67 -424l353 420l-99 121l733 -27l-520 -418z" />
    <glyph glyph-name="L" unicode="L" horiz-adv-x="1479" 
d="M1466 -88l-131 154l-1351 -74l184 129l49 1139l-272 81l977 107l-256 -186l170 -920l358 182l115 264z" />
    <glyph glyph-name="M" unicode="M" horiz-adv-x="2251" 
d="M2298 20l-1204 43l219 123l192 889l-446 -735l-383 821l153 -1067l322 -149l-1126 100l172 98l114 1123l-225 100l944 115l127 -547l121 487l915 -53l-276 -96l115 -1100z" />
    <glyph glyph-name="N" unicode="N" horiz-adv-x="1929" 
d="M1954 1360l-156 -68l-160 -1171l226 -90l-523 -41l-727 1034l250 -938l264 -145l-1116 104l170 115l72 1102l-242 98l840 119l514 -1119l-90 971l-162 109z" />
    <glyph glyph-name="O" unicode="O" horiz-adv-x="1712" 
d="M905 1229q-29 -43 -44 -91t-15 -98q0 -90 68.5 -155.5t162.5 -65.5q74 0 140.5 40t95.5 102q-72 124 -176.5 193t-231.5 75zM1665 707q0 -108 -27 -201.5t-82 -173.5q-116 -170 -319 -270.5t-430 -100.5q-121 0 -227.5 31t-196.5 92q-160 108 -248 269.5t-88 348.5
q0 143 55 272t160 232q129 128 300.5 197.5t359.5 69.5q118 0 220.5 -29.5t188.5 -87.5q154 -104 244 -279.5t90 -369.5z" />
    <glyph glyph-name="P" unicode="P" horiz-adv-x="1661" 
d="M578 801q135 57 219 156.5t84 195.5q0 56 -21 82.5t-65 26.5q-30 0 -59 -9t-66 -30zM-23 1358l768 88q108 12 159 16t81 4q305 0 473 -153t168 -430q0 -249 -153 -404t-398 -155q-139 0 -255 41.5t-197 121.5l63 -356l328 -199l-1008 95l141 100l146 1094z" />
    <glyph glyph-name="Q" unicode="Q" horiz-adv-x="1716" 
d="M906 1229q-30 -45 -45 -93t-15 -96q0 -89 69 -155t162 -66q74 0 141.5 40.5t94.5 101.5q-72 125 -177 194t-230 74zM1843 -336l-588 410q-110 -55 -228 -83t-236 -28q-112 0 -215 31t-193 92q-160 107 -248 269t-88 347q0 154 64.5 292.5t183.5 242.5q129 114 291.5 175
t337.5 61q153 0 282 -51.5t230 -151.5q110 -112 169.5 -261.5t59.5 -312.5q0 -113 -33.5 -212t-101.5 -189z" />
    <glyph glyph-name="R" unicode="R" horiz-adv-x="1679" 
d="M610 780q33 -18 69 -28.5t66 -10.5q42 0 74.5 47t32.5 107q0 74 -49 130t-154 101zM1665 84l-670 -225l80 151l-379 461q-23 2 -47.5 6.5t-50.5 9.5l29 -356l225 -199l-846 95l141 100l146 1094l-316 137l768 88q88 11 151 15.5t112 4.5q304 0 461 -124.5t157 -366.5
q0 -201 -134 -327.5t-398 -174.5z" />
    <glyph glyph-name="S" unicode="S" horiz-adv-x="1690" 
d="M1262 1458l170 -536q-139 120 -249.5 183.5t-181.5 63.5q-53 0 -82.5 -28.5t-29.5 -79.5q0 -64 63.5 -114t198.5 -91q299 -91 404.5 -177.5t105.5 -221.5q0 -218 -214.5 -359t-551.5 -141q-171 0 -341.5 62.5t-313.5 177.5v-240l-179 535q124 -101 244.5 -155t218.5 -54
q106 0 165 45t59 125q0 75 -47.5 119.5t-211.5 95.5q-239 76 -356 180.5t-117 245.5q0 177 156 290t406 113q165 0 322 -59t323 -183z" />
    <glyph glyph-name="T" unicode="T" horiz-adv-x="1526" 
d="M1638 1493l-485 -948l-63 723l-279 -1108l424 -203l-916 49l295 92l-335 1190l-95 -874l-196 968z" />
    <glyph glyph-name="U" unicode="U" horiz-adv-x="1726" 
d="M1698 1434l-355 -195q161 -110 245.5 -258t84.5 -317q0 -87 -25 -166.5t-75 -149.5q-126 -175 -341 -280t-448 -105q-140 0 -273 57t-239 162q-104 106 -160.5 238t-56.5 270q0 185 109 345t332 302l-414 54l850 114q-148 -112 -228.5 -240.5t-80.5 -250.5
q0 -120 80.5 -199.5t201.5 -79.5q111 0 184.5 83.5t73.5 209.5q0 87 -35.5 163t-105.5 140z" />
    <glyph glyph-name="V" unicode="V" horiz-adv-x="1606" 
d="M1767 1448l-229 -131l-494 -1219l222 -151l-969 53l195 131l-429 1186l-180 61l1000 107l-150 -127l107 -981l247 930l-120 86z" />
    <glyph glyph-name="W" unicode="W" horiz-adv-x="2154" 
d="M2253 1333l-203 -94l-373 -1100l277 -71l-770 -144l-230 590l-235 -528l-596 32l203 84l-162 1180l-184 86l1042 92l-240 -147l-147 -879l479 699l307 -691l45 850l-206 107z" />
    <glyph glyph-name="X" unicode="X" horiz-adv-x="1765" 
d="M1843 1352l-178 -60l-575 -518l479 -649l205 -96l-838 -107l145 96l-299 519l-198 -443l86 -94l-799 84l137 76l537 631l-309 522l-213 92l876 68l-143 -127l186 -388l203 367l-137 94z" />
    <glyph glyph-name="Y" unicode="Y" horiz-adv-x="1839" 
d="M1978 1333l-219 -110l-626 -705l100 -473l254 -115l-1233 68l240 117l122 448l-534 762l-211 66l1044 82l-178 -115l269 -610l229 532l-176 90z" />
    <glyph glyph-name="Z" unicode="Z" horiz-adv-x="1608" 
d="M1583 1376l-1012 -1102l764 218l221 331l-102 -780l-1524 -109l811 1223l-454 -53l-125 -344l-133 737z" />
    <glyph glyph-name="bracketleft" unicode="[" horiz-adv-x="887" 
d="M985 1645l-348 -148l-100 -1632l444 -115l-772 -29l-88 1897z" />
    <glyph glyph-name="backslash" unicode="\" horiz-adv-x="1108" 
d="M1049 -137l-99 -99l-895 1760l226 174z" />
    <glyph glyph-name="bracketright" unicode="]" horiz-adv-x="887" 
d="M766 -252l-864 -27l348 146l100 1632l-444 117l772 29z" />
    <glyph glyph-name="asciicircum" unicode="^" 
d="M338 698h-322l293 676h406l291 -676h-320l-174 430z" />
    <glyph glyph-name="underscore" unicode="_" 
d="M0 -104h1024v-213h-1024v213z" />
    <glyph glyph-name="grave" unicode="`" 
d="M639 1141l-600 450h424z" />
    <glyph glyph-name="a" unicode="a" horiz-adv-x="1292" 
d="M580 821q-26 -30 -38 -64t-12 -79q0 -88 57.5 -147.5t141.5 -59.5q30 0 62 12.5t65 36.5q-64 118 -133.5 193.5t-142.5 107.5zM1280 1030l-147 -67l30 -838l115 -88l-440 -55l75 305q-92 -151 -212.5 -228t-262.5 -77q-170 0 -286.5 139.5t-116.5 345.5q0 263 125 432.5
t315 169.5q144 0 253.5 -75.5t184.5 -225.5l-63 309z" />
    <glyph glyph-name="b" unicode="b" horiz-adv-x="1284" 
d="M393 528q18 -31 48.5 -46t74.5 -15q78 0 137.5 67t59.5 154q0 34 -12.5 65t-41.5 66q-93 -49 -160 -122t-106 -169zM518 1421l-160 -622q110 131 219.5 194.5t227.5 63.5q182 0 311 -136.5t129 -330.5q0 -241 -183 -396.5t-499 -181.5l-563 -45l160 146l-33 1267l-119 68
l651 47z" />
    <glyph glyph-name="c" unicode="c" horiz-adv-x="1186" 
d="M1169 -29l-110 222q-120 -111 -237.5 -163.5t-246.5 -52.5q-235 0 -386.5 139t-151.5 355q0 126 45 240.5t127 195.5q75 75 169.5 113.5t205.5 38.5q110 0 209.5 -39.5t197.5 -122.5l41 176l58 -442q-38 42 -85.5 64t-101.5 22q-74 0 -123 -50t-49 -126q0 -75 55.5 -129
t131.5 -54q52 0 99.5 26.5t102.5 86.5z" />
    <glyph glyph-name="d" unicode="d" horiz-adv-x="1290" 
d="M573 831q-21 -22 -32 -53.5t-11 -68.5q0 -88 63 -150.5t148 -62.5q36 0 66.5 13t62.5 42q-52 110 -126.5 180t-170.5 100zM1292 1440l-129 -58l-12 -1276l125 -141l-668 43q-257 17 -414 157.5t-157 352.5q0 224 131 377.5t321 153.5q124 0 225 -56.5t187 -173.5
l-113 565l-141 109z" />
    <glyph glyph-name="e" unicode="e" horiz-adv-x="1294" 
d="M283 690q32 -26 75 -40.5t88 -14.5q79 0 129 46t50 118q0 35 -10 63t-31 53q-107 -16 -182.5 -72.5t-118.5 -152.5zM1278 -23l-90 166q-133 -84 -266 -125t-275 -41q-277 0 -443.5 137.5t-166.5 364.5q0 120 45.5 231.5t128.5 194.5q80 80 185.5 121t232.5 41
q243 0 401 -105t158 -264q0 -160 -145.5 -268t-364.5 -108q-54 0 -101 8.5t-90 25.5q94 -64 184.5 -94.5t186.5 -30.5q117 0 215 52t168 151z" />
    <glyph glyph-name="f" unicode="f" horiz-adv-x="1243" 
d="M1282 1499l-235 -399q-25 43 -61.5 64.5t-84.5 21.5q-72 0 -103.5 -57t-31.5 -187q0 -23 0.5 -38t2.5 -29l271 10l205 174l-84 -565l-174 172l-194 -25q21 -147 50 -281.5t66 -257.5l201 -90l-891 -39l230 168q-45 186 -67 282.5t-36 162.5l-115 -17l-141 -194l-74 635
l146 -152l131 4q-10 70 -15.5 136t-5.5 126q0 185 106 280t310 95q98 0 192.5 -27.5t182.5 -80.5z" />
    <glyph glyph-name="g" unicode="g" horiz-adv-x="1339" 
d="M608 864q-26 -29 -39.5 -64t-13.5 -75q0 -86 58 -150.5t132 -64.5q37 0 70.5 15.5t69.5 49.5q-57 113 -125 184t-152 105zM1280 1038l-147 -82q69 -229 104 -419.5t35 -335.5q0 -311 -153.5 -483.5t-430.5 -172.5q-116 0 -228.5 27t-232.5 84l-143 -117l207 426
q89 -101 187.5 -153t203.5 -52q119 0 205 98t86 232q0 52 -11.5 100.5t-35.5 98.5q-89 -143 -197 -210t-250 -67q-188 0 -315 143t-127 355q0 244 134 403.5t337 159.5q112 0 218.5 -57t209.5 -172l-92 229z" />
    <glyph glyph-name="h" unicode="h" horiz-adv-x="1280" 
d="M514 1395l-182 -615q108 141 228.5 210t258.5 69q181 0 303.5 -122t122.5 -304q0 -127 -59.5 -261t-177.5 -274l233 -78l-596 -51q67 66 101 141.5t34 157.5q0 83 -38.5 132t-104.5 49q-79 0 -133.5 -67t-54.5 -167q0 -53 14.5 -100.5t44.5 -87.5l-516 -60l155 131
l-18 1286l-133 66l704 45z" />
    <glyph glyph-name="i" unicode="i" horiz-adv-x="924" 
d="M979 12l-1036 -32l223 90l70 852l-273 108l998 37l-320 -113l125 -876zM868 1298q0 -68 -105 -112.5t-274 -44.5t-274.5 44.5t-105.5 112.5t106 113t274 45q169 0 274 -45t105 -113z" />
    <glyph glyph-name="j" unicode="j" horiz-adv-x="856" 
d="M805 1073l-156 -92q83 -236 125.5 -445t42.5 -382q0 -287 -159.5 -447t-444.5 -160q-111 0 -214.5 20.5t-203.5 61.5l-145 -90l203 389q65 -82 139 -123t158 -41q109 0 166 63t57 185q0 168 -71.5 410t-201.5 504l-241 104zM682 1300q0 -68 -98.5 -112.5t-255.5 -44.5
q-156 0 -253.5 44.5t-97.5 112.5q0 69 97.5 113.5t253.5 44.5t255 -45t99 -113z" />
    <glyph glyph-name="k" unicode="k" horiz-adv-x="1339" 
d="M1440 141l-531 -211l80 191l-491 395l137 -444l110 -62l-749 -39l151 148l-30 1241l-105 80l801 57l-160 -115l-135 -727l305 342l-61 123l606 -43l-502 -336z" />
    <glyph glyph-name="l" unicode="l" horiz-adv-x="791" 
d="M793 8l-832 -41l229 131l-18 1149l-207 37l785 221l-183 -1415z" />
    <glyph glyph-name="m" unicode="m" horiz-adv-x="1688" 
d="M1626 8l-510 -39q78 81 116 159t38 157q0 77 -34 124.5t-89 47.5q-63 0 -111.5 -63t-48.5 -148q0 -47 13.5 -86.5t41.5 -77.5l-391 22q28 36 42 71t14 71q0 80 -37 132t-92 52q-60 0 -104 -60.5t-44 -146.5q0 -63 23 -116t71 -103l-532 -35l168 131l-21 854l-141 60
l451 47l-56 -234q69 112 155 172t175 60q85 0 153 -73t91 -191q57 130 140.5 197t188.5 67q139 0 232.5 -130t93.5 -327q0 -134 -43.5 -261t-134.5 -259z" />
    <glyph glyph-name="n" unicode="n" horiz-adv-x="1286" 
d="M1233 18l-559 -36q56 63 84 129.5t28 134.5q0 91 -43 150t-108 59q-75 0 -124.5 -61.5t-49.5 -155.5q0 -64 20 -115.5t60 -89.5l-549 -64l125 131l43 822l-164 82l522 57l-121 -244q126 120 245 181t226 61q166 0 265.5 -109.5t99.5 -292.5q0 -144 -51 -287.5
t-150 -279.5z" />
    <glyph glyph-name="o" unicode="o" horiz-adv-x="1233" 
d="M266 682q31 -38 70 -56t92 -18q91 0 154 56t63 137q0 32 -10 58t-31 46q-122 -34 -206 -89.5t-132 -133.5zM1196 526q0 -82 -21 -153t-63 -133q-83 -123 -215.5 -194t-280.5 -71q-252 0 -415.5 151.5t-163.5 383.5q0 246 166.5 402.5t429.5 156.5q248 0 405.5 -152
t157.5 -391z" />
    <glyph glyph-name="p" unicode="p" horiz-adv-x="1282" 
d="M416 532q24 -30 52.5 -43.5t68.5 -13.5q78 0 129 59.5t51 151.5q0 41 -12.5 75t-38.5 66q-98 -63 -160.5 -137t-89.5 -158zM309 188l160 -546l139 -64l-608 -43l90 103l49 1316l-137 64l500 49l-113 -250q98 124 210.5 187t236.5 63q175 0 292 -136t117 -341
q0 -141 -47.5 -264.5t-134.5 -212.5q-67 -69 -151.5 -104.5t-180.5 -35.5q-119 0 -219.5 51.5t-202.5 163.5z" />
    <glyph glyph-name="q" unicode="q" horiz-adv-x="1229" 
d="M864 528q-56 119 -122.5 192.5t-139.5 98.5q-23 -37 -34 -70t-11 -67q0 -89 52.5 -145t135.5 -56q38 0 66.5 11.5t52.5 35.5zM1264 1018l-150 -47l-162 -1166l224 66l61 92l23 -420l-91 119l-708 -129l352 578q-84 -72 -167.5 -106t-176.5 -34q-186 0 -309 140.5
t-123 355.5q0 140 46.5 263t131.5 210q54 55 122 85t140 30q118 0 215 -54.5t178 -166.5l-73 223z" />
    <glyph glyph-name="r" unicode="r" horiz-adv-x="1208" 
d="M1241 1055l-158 -635q-70 86 -152 128t-179 42q-124 0 -203.5 -80.5t-79.5 -204.5q0 -78 37 -146.5t121 -144.5l-641 -34l114 94l56 884l-158 66l506 27l-84 -228q113 118 215.5 175t202.5 57q81 0 149 -33.5t115 -95.5z" />
    <glyph glyph-name="s" unicode="s" horiz-adv-x="1251" 
d="M1116 1067l-190 -362q-78 70 -148.5 103.5t-138.5 33.5q-62 0 -96.5 -28t-34.5 -77q0 -89 271 -107q27 -2 42 -3q221 -15 320.5 -81t99.5 -198q0 -164 -161.5 -267.5t-424.5 -103.5q-119 0 -240.5 37t-254.5 113l-166 -147l129 403q98 -87 189.5 -131.5t168.5 -44.5
q64 0 102 33.5t38 91.5q0 60 -40 88.5t-192 52.5q-170 28 -244.5 88t-74.5 168q0 158 129.5 251t349.5 93q124 0 213 -30t166 -97z" />
    <glyph glyph-name="t" unicode="t" horiz-adv-x="1255" 
d="M1247 -29l-149 168q-109 -85 -220 -126.5t-233 -41.5q-190 0 -304 110t-114 294q0 55 9.5 131t31.5 196l-116 -14l-107 -182l-37 610l137 -137l191 6q27 99 56.5 191.5t62.5 179.5l-256 98l876 39l-248 -156q-20 -92 -36.5 -174t-28.5 -159l229 10l156 192l-25 -565
l-141 164l-250 -35q-10 -81 -15 -147t-5 -115q0 -111 35 -160t114 -49q76 0 157 45t157 129z" />
    <glyph glyph-name="u" unicode="u" horiz-adv-x="1352" 
d="M1300 1063l-249 -135q124 -95 183.5 -199.5t59.5 -228.5q0 -94 -35.5 -178t-103.5 -150q-98 -97 -235 -149t-295 -52q-249 0 -408.5 133.5t-159.5 337.5q0 137 60.5 262.5t183.5 243.5l-250 49l580 66q-65 -73 -99 -149.5t-34 -149.5q0 -87 40 -135.5t111 -48.5
q83 0 136 57.5t53 148.5q0 57 -21 105t-65 94z" />
    <glyph glyph-name="v" unicode="v" horiz-adv-x="1479" 
d="M1608 1032l-193 -98l-473 -838l203 -119l-932 29l174 92l-334 828l-155 59l878 86l-168 -110l115 -607l211 543l-115 98z" />
    <glyph glyph-name="w" unicode="w" horiz-adv-x="1985" 
d="M2038 1061l-164 -92l-262 -879l162 -110l-770 30l133 82l-281 289l-141 -221l149 -135l-682 -45l162 114l-254 836l-164 69l910 62l-193 -92l10 -529l365 521l215 -510l127 491l-156 96z" />
    <glyph glyph-name="x" unicode="x" horiz-adv-x="1597" 
d="M1671 997l-203 -67l-383 -340l404 -492l170 -39l-924 -92l135 107l-190 340l-133 -334l102 -92l-717 39l170 57l344 475l-329 356l-174 54l878 88l-125 -117l103 -238l184 246l-115 76z" />
    <glyph glyph-name="y" unicode="y" horiz-adv-x="1358" 
d="M1300 1065l-210 -104q108 -223 162.5 -406t54.5 -324q0 -152 -46 -281.5t-133 -223.5q-83 -91 -191 -139t-230 -48q-115 0 -224 26.5t-213 80.5l-178 -111l262 422q92 -109 186 -163t191 -54q129 0 207 82t78 219q0 51 -12 100.5t-35 98.5q-76 -118 -187.5 -179
t-251.5 -61q-206 0 -338.5 117t-132.5 297q0 138 59.5 264.5t188.5 261.5l-256 53l604 70q-68 -81 -104.5 -166t-36.5 -160q0 -79 38.5 -129.5t98.5 -50.5q85 0 139 66t54 172q0 70 -15 127t-47 104z" />
    <glyph glyph-name="z" unicode="z" horiz-adv-x="1247" 
d="M1251 981l-716 -750l512 181l153 241l-53 -590l-1145 -104l528 838l-354 -72l-117 -225l-41 565z" />
    <glyph glyph-name="braceleft" unicode="{" horiz-adv-x="887" 
d="M63 1614l803 39q-132 -120 -198 -260t-66 -299q0 -141 35 -234t113 -164q-84 -88 -122 -190t-38 -238q0 -166 67.5 -303t200.5 -241l-833 26l292 121q-74 94 -112.5 199.5t-38.5 214.5q0 113 36.5 198.5t112.5 147.5l-305 74l297 108q-66 55 -98.5 126.5t-32.5 162.5
q0 95 52.5 205.5t154.5 228.5z" />
    <glyph glyph-name="bar" unicode="|" 
d="M328 1366h368v-1708h-368v1708z" />
    <glyph glyph-name="braceright" unicode="}" horiz-adv-x="887" 
d="M885 651l-297 -106q66 -55 98.5 -127.5t32.5 -163.5q0 -94 -53 -204.5t-154 -227.5l322 -78l-805 -41q131 119 197.5 259t66.5 300q0 142 -34.5 234t-113.5 163q83 88 121.5 191t38.5 237q0 168 -67 305t-199 240l831 -24l-292 -123q74 -93 113.5 -200t39.5 -214
q0 -110 -38 -197.5t-113 -148.5z" />
    <glyph glyph-name="asciitilde" unicode="~" 
d="M190 461l-176 147q60 153 138 226t182 73q69 0 198 -55t170 -55q38 0 69.5 28t62.5 88l174 -147q-54 -149 -135 -224t-187 -75q-69 0 -195.5 54t-171.5 54q-36 0 -67.5 -27.5t-61.5 -86.5z" />
    <glyph glyph-name="nonbreakingspace" unicode="&#xa0;" horiz-adv-x="1774" 
 />
    <glyph glyph-name="exclamdown" unicode="&#xa1;" horiz-adv-x="1212" 
d="M244 1354q0 73 104 114t291 41q171 0 279 -44.5t108 -110.5q0 -73 -105.5 -117.5t-281.5 -44.5q-179 0 -287 45t-108 117zM-109 41l371 76l176 848l-221 118l793 29l-160 -156l78 -815l284 -155z" />
    <glyph glyph-name="cent" unicode="&#xa2;" horiz-adv-x="1239" 
d="M1155 682l43 -504l-108 219q-102 -92 -199.5 -143t-202.5 -68l141 -299l154 -47l-721 -47l160 111l90 284q-218 40 -336.5 168t-118.5 322q0 230 131 391t344 193l-100 286l-156 103l715 -23l-203 -96l-79 -277q67 -11 141 -44t164 -91l45 154l49 -422q-31 40 -71.5 59
t-96.5 19q-78 0 -131 -51t-53 -125q0 -81 55 -134t139 -53q53 0 105.5 29.5t99.5 85.5z" />
    <glyph glyph-name="sterling" unicode="&#xa3;" horiz-adv-x="1679" 
d="M1716 602l-182 -602q-120 51 -241.5 74.5t-258.5 23.5q-178 0 -368 -35.5t-406 -109.5l-98 389l170 -195q30 22 59.5 39.5t59.5 32.5q-48 118 -78.5 206.5t-48.5 164.5l-228 -8l-57 -148l-31 617l82 -172l186 -17q-1 8 -1.5 17t-0.5 28q0 264 163 420t440 156
q151 0 288.5 -43.5t268.5 -132.5l174 178l-150 -481q-90 99 -186.5 147.5t-204.5 48.5q-161 0 -245 -92t-99 -285l307 -28l125 178l-53 -522l-62 165l-319 -10q2 -74 12.5 -140.5t30.5 -127.5q65 16 135.5 23.5t151.5 7.5q110 0 221.5 -7.5t226.5 -21.5z" />
    <glyph glyph-name="currency" unicode="&#xa4;" horiz-adv-x="1993" 
d="M1294 698q0 99 -81 166.5t-201 67.5q-123 0 -204 -67t-81 -167q0 -96 81 -160.5t204 -64.5q122 0 202 64t80 161zM1999 1239l-193 31l-327 -215q99 -67 148.5 -154.5t49.5 -193.5q0 -93 -33.5 -171.5t-103.5 -150.5l160 -117l235 64l-491 -486l74 199l-177 209
q-85 -35 -174.5 -52.5t-185.5 -17.5q-110 0 -208 30.5t-183 90.5l-238 -260l43 -186l-395 469l154 -66l301 193q-30 49 -45 107.5t-15 123.5q0 98 39.5 179t118.5 147l-264 202l-142 -53l385 424l-16 -205l205 -270q81 32 162.5 48t165.5 16q65 0 128.5 -10t127.5 -29
l331 335v152z" />
    <glyph glyph-name="yen" unicode="&#xa5;" horiz-adv-x="2073" 
d="M2095 1333l-219 -110l-387 -435l383 -8l117 178l-33 -548l-92 170l-604 -52l-11 -10l101 -473l252 -115l-1231 68l239 117l103 368l-541 -43l-76 -153l-55 604l76 -92l452 -4l-370 530l-211 66l1044 82l-178 -115l266 -610l232 532l-176 90z" />
    <glyph glyph-name="brokenbar" unicode="&#xa6;" 
d="M328 313h368v-655h-368v655zM328 1366h368v-735h-368v735z" />
    <glyph glyph-name="section" unicode="&#xa7;" horiz-adv-x="1393" 
d="M474 567q7 -1 14 -1.5t20 -0.5q83 0 134.5 44t51.5 114v8q-26 5 -44.5 7.5t-33.5 2.5q-70 0 -112.5 -33t-42.5 -87q0 -13 3 -25.5t10 -28.5zM1196 1462l-240 -348q-47 60 -109 92.5t-128 32.5q-58 0 -94.5 -28t-36.5 -72q0 -54 52.5 -89.5t135.5 -35.5q24 0 84.5 5
t95.5 5q155 0 259 -81t104 -198q0 -89 -46.5 -159.5t-139.5 -122.5q60 -43 90 -95t30 -114q0 -164 -161 -266.5t-424 -102.5q-121 0 -241.5 36t-252.5 112l-168 -146l166 379q89 -75 172 -114t154 -39q66 0 110.5 36t44.5 89q0 44 -27 76t-89 61h-29q-197 0 -311.5 73
t-114.5 197q0 90 51.5 163t149.5 120q-67 38 -101.5 88t-34.5 110q0 158 129.5 251t350.5 93q122 0 211 -30t168 -97z" />
    <glyph glyph-name="dieresis" unicode="&#xa8;" 
d="M479 1333q0 -76 -79.5 -126t-204.5 -50t-205 50t-80 126t80.5 128t204.5 52q123 0 203.5 -52t80.5 -128zM1112 1333q0 -76 -79 -126t-204 -50q-124 0 -204 50t-80 126q0 77 80 128.5t204 51.5q123 0 203 -51.5t80 -128.5z" />
    <glyph glyph-name="copyright" unicode="&#xa9;" horiz-adv-x="555" 
d="M293 1464q92 0 158.5 -66.5t66.5 -158.5q0 -94 -67 -159.5t-162 -65.5q-89 0 -155 67.5t-66 161.5q0 88 66.5 154.5t158.5 66.5zM293 1430q-79 0 -135 -56.5t-56 -134.5q0 -77 56.5 -133.5t134.5 -56.5q79 0 135.5 55.5t56.5 134.5q0 80 -56 135.5t-136 55.5zM397 1288
h-54q-3 22 -15.5 33.5t-32.5 11.5q-28 0 -42.5 -23.5t-14.5 -68.5q0 -44 14.5 -67t42.5 -23q21 0 34.5 13.5t14.5 35.5h55q0 -44 -29.5 -71t-78.5 -27q-52 0 -82.5 37.5t-30.5 101.5q0 60 32.5 96.5t86.5 36.5q45 0 72 -23.5t28 -62.5z" />
    <glyph glyph-name="ordfeminine" unicode="&#xaa;" horiz-adv-x="979" 
d="M451 1057q-16 -16 -23.5 -35t-7.5 -43q0 -48 35.5 -80.5t89.5 -32.5q17 0 35.5 6.5t44.5 20.5q-40 64 -85 106t-89 58zM956 1192l-102 -41l20 -502l80 -53l-329 -33l51 185q-67 -92 -150.5 -138.5t-181.5 -46.5q-121 0 -202 83.5t-81 207.5q0 157 88 260t222 103
q100 0 176.5 -45.5t128.5 -135.5l-45 185z" />
    <glyph glyph-name="guillemotleft" unicode="&#xab;" horiz-adv-x="1597" 
d="M1487 489l-182 -430l-596 625l497 547l275 -287l-502 -219zM881 467l-160 -408l-643 603l545 569l274 -287l-502 -219z" />
    <glyph glyph-name="logicalnot" unicode="&#xac;" 
d="M598 0v285h-530v321h886v-606h-356z" />
    <glyph glyph-name="sfthyphen" unicode="&#xad;" horiz-adv-x="780" 
d="M711 860l-27 -307l-551 -107l-63 426z" />
    <glyph glyph-name="registered" unicode="&#xae;" horiz-adv-x="555" 
d="M293 1464q92 0 158.5 -66.5t66.5 -158.5q0 -94 -67 -159.5t-162 -65.5q-89 0 -155 67.5t-66 161.5q0 88 66.5 154.5t158.5 66.5zM293 1430q-79 0 -135 -56.5t-56 -134.5q0 -77 56.5 -133.5t134.5 -56.5q79 0 135.5 55.5t56.5 134.5q0 80 -56 135.5t-136 55.5zM203 1360
h88q52 0 77 -17t25 -53q0 -24 -13 -41t-37 -24l52 -107h-57l-47 99h-35v-99h-53v242zM256 1323v-70h35q26 0 37.5 8t11.5 25q0 19 -12 28t-39 9h-33z" />
    <glyph glyph-name="overscore" unicode="&#xaf;" 
d="M0 1565h1024v-240h-1024v240z" />
    <glyph glyph-name="degree" unicode="&#xb0;" 
d="M705 1210q0 65 -55 107.5t-138 42.5t-138 -42.5t-55 -107.5q0 -64 55 -107.5t138 -43.5t138 43.5t55 107.5zM946 1210q0 -130 -122.5 -217.5t-311.5 -87.5q-188 0 -311 87.5t-123 217.5t123 218t311 88q189 0 311.5 -87.5t122.5 -218.5z" />
    <glyph glyph-name="plusminus" unicode="&#xb1;" horiz-adv-x="1706" 
d="M254 213h1198v-231h-1198v231zM735 1241h238v-319h479v-232h-479v-319h-238v319h-481v232h481v319z" />
    <glyph glyph-name="twosuperior" unicode="&#xb2;" horiz-adv-x="1122" 
d="M1085 1028l-79 -424l-1043 -55l486 518q61 64 78.5 96t17.5 66q0 35 -25.5 55.5t-68.5 20.5q-79 0 -153 -58t-142 -174l-156 354l137 -129q117 86 232.5 127t238.5 41q182 0 290 -69.5t108 -186.5q0 -89 -54 -154.5t-204 -144.5l-394 -206l623 137z" />
    <glyph glyph-name="threesuperior" unicode="&#xb3;" horiz-adv-x="1202" 
d="M76 1436l94 -86q129 61 257.5 92t250.5 31q169 0 278 -58.5t109 -144.5q0 -63 -71.5 -115t-198.5 -82q6 0 19 1t20 1q140 0 231.5 -65t91.5 -162q0 -131 -143.5 -212t-382.5 -81q-141 0 -258 19t-211 57v-78l-162 344q117 -97 239 -148t240 -51q94 0 150.5 42.5
t56.5 111.5q0 48 -29.5 74t-83.5 26q-30 0 -58 -9t-56 -28l-27 -104l-100 297l88 -53q134 24 193 64t59 106q0 48 -34.5 74t-98.5 26q-94 0 -183.5 -60t-160.5 -171z" />
    <glyph glyph-name="acute" unicode="&#xb4;" 
d="M1071 1591l-600 -450l176 450h424z" />
    <glyph glyph-name="mu" unicode="&#xb5;" horiz-adv-x="1352" 
d="M338 33l113 -391l139 -64l-606 -43l88 103l-15 792v12q0 136 60.5 261.5t183.5 244.5l-250 49l580 66q-66 -76 -99.5 -152t-33.5 -147q0 -87 40 -135.5t111 -48.5q83 0 136 57.5t53 148.5q0 57 -21 105t-65 94l548 78l-249 -135q124 -95 183.5 -199.5t59.5 -228.5
q0 -94 -35.5 -178t-103.5 -150q-101 -98 -236.5 -149.5t-291.5 -51.5q-77 0 -149 15.5t-140 46.5z" />
    <glyph glyph-name="paragraph" unicode="&#xb6;" horiz-adv-x="1698" 
d="M500 1087q19 -30 47 -44.5t65 -14.5q66 0 111 43t45 105q0 13 -2 25.5t-6 24.5q-99 -4 -163.5 -38.5t-96.5 -100.5zM1679 1475l-239 -115l69 -1671l158 -107l-489 -43l36 1737q-47 6 -75.5 8t-51.5 2q-17 0 -40 -1t-29 -1l-37 -1751l-530 51l208 115l100 745
q-38 -9 -78.5 -13.5t-82.5 -4.5q-243 0 -399 136t-156 345q0 284 251.5 442t706.5 158q157 0 327 -8t351 -24z" />
    <glyph glyph-name="glyph121" unicode="&#xb7;" horiz-adv-x="825" 
d="M725 684q0 -72 -92 -128t-221 -56q-130 0 -221 55.5t-91 128.5q0 72 90.5 125t221.5 53t222 -53.5t91 -124.5z" />
    <glyph glyph-name="cedilla" unicode="&#xb8;" 
d="M487 25l-59 -129q25 9 56 13.5t75 4.5q154 0 249 -60.5t95 -156.5q0 -100 -91.5 -159.5t-248.5 -59.5q-84 0 -157 25t-134 75l-59 -49l61 223q47 -72 95.5 -106.5t101.5 -34.5q55 0 84 23t29 67q0 54 -39.5 83.5t-112.5 29.5q-39 0 -76.5 -7t-70.5 -20l121 358z" />
    <glyph glyph-name="onesuperior" unicode="&#xb9;" horiz-adv-x="756" 
d="M696 563l-678 25l195 71l-25 574l-221 14l717 230l-168 -811z" />
    <glyph glyph-name="ordmasculine" unicode="&#xba;" horiz-adv-x="981" 
d="M258 987q18 -21 43 -31t59 -10q57 0 96.5 31.5t39.5 75.5q0 17 -6 30t-19 25q-78 -20 -130.5 -49.5t-82.5 -71.5zM895 889q0 -136 -118.5 -233t-287.5 -97q-176 0 -290.5 92t-114.5 230q0 146 117.5 241t300.5 95q174 0 283.5 -92.5t109.5 -235.5z" />
    <glyph glyph-name="guillemotright" unicode="&#xbb;" horiz-adv-x="1597" 
d="M1520 631l-545 -568l-250 285l477 219l-483 260l158 408zM889 608l-498 -545l-274 285l501 219l-505 236l180 432z" />
    <glyph glyph-name="onequarter" unicode="&#xbc;" horiz-adv-x="2537" 
d="M1874 465l-8 215l-267 -272zM2435 645l-8 -471l-57 158l-207 -43l55 -226l137 -59l-651 -24l121 96l33 188l-658 -37l537 617l635 45l-113 -60l-84 -358l203 74zM1862 1399l-287 -74l-676 -1233l148 -123l-807 131l290 84l762 1159l-196 152zM741 563l-675 25l194 71
l-24 574l-222 14l717 230l-168 -811z" />
    <glyph glyph-name="onehalf" unicode="&#xbd;" horiz-adv-x="2372" 
d="M2357 453l-80 -422l-1042 -56l487 517q61 65 78 96.5t17 64.5q0 36 -25.5 57t-69.5 21q-79 0 -152.5 -57.5t-142.5 -173.5l-153 352l137 -127q117 86 232 127t237 41q183 0 290 -69.5t107 -186.5q0 -91 -53.5 -156t-202.5 -143l-393 -207l621 137zM1792 1399l-289 -74
l-674 -1233l148 -123l-807 131l291 84l762 1159l-197 152zM672 563l-676 25l192 71l-22 574l-221 14l714 230l-165 -811z" />
    <glyph glyph-name="threequarters" unicode="&#xbe;" horiz-adv-x="2986" 
d="M2322 465l-8 215l-266 -272zM2884 645l-9 -471l-59 158l-207 -43l57 -226l136 -59l-650 -24l119 96l33 188l-655 -37l536 617l633 45l-113 -60l-82 -358l203 74zM2310 1399l-289 -74l-673 -1233l147 -123l-809 131l293 84l762 1159l-199 152zM123 1436l92 -86
q130 61 258 92t252 31q170 0 278.5 -58.5t108.5 -144.5q0 -63 -71.5 -115t-198.5 -82q7 1 16 1.5t25 0.5q137 0 228 -64t91 -157q0 -136 -141.5 -217.5t-382.5 -81.5q-139 0 -257.5 19t-213.5 57v-78l-162 344q118 -97 241 -148t240 -51q93 0 149 42.5t56 111.5
q0 48 -29.5 74t-83.5 26q-29 0 -56 -8.5t-56 -28.5l-29 -104l-100 297l90 -53q135 26 193.5 65.5t58.5 104.5q0 48 -34.5 74t-98.5 26q-94 0 -182.5 -59.5t-161.5 -171.5z" />
    <glyph glyph-name="questiondown" unicode="&#xbf;" horiz-adv-x="1737" 
d="M612 1356q0 64 113.5 110.5t282.5 46.5q157 0 273 -49t116 -108q0 -64 -112 -112t-277 -48q-168 0 -282 48t-114 112zM1767 55l-155 99q-177 -84 -356 -125t-361 -41q-206 0 -371.5 55t-275.5 160q-52 50 -80.5 112.5t-28.5 126.5q0 185 150.5 292.5t420.5 115.5l74 188
l-223 125l807 -78l-158 -84l66 -288q-315 -25 -443 -92.5t-128 -202.5q0 -101 61 -156t174 -55q148 0 300.5 115t295.5 337z" />
    <glyph glyph-name="Agrave" unicode="&#xc0;" horiz-adv-x="1741" 
d="M1038 791l-139 399l-135 -492zM1845 217l-872 -270l223 299l-63 221l-324 -25l-94 -258l141 -110l-948 -68l231 172l307 1194l-174 113l1176 -39l-274 -98l481 -1074zM954 1567l-600 450h424z" />
    <glyph glyph-name="Aacute" unicode="&#xc1;" horiz-adv-x="1741" 
d="M1038 791l-139 399l-135 -492zM1845 217l-872 -270l223 299l-63 221l-324 -25l-94 -258l141 -110l-948 -68l231 172l307 1194l-174 113l1176 -39l-274 -98l481 -1074zM1386 2017l-600 -450l176 450h424z" />
    <glyph glyph-name="Acircumflex" unicode="&#xc2;" horiz-adv-x="1741" 
d="M1038 791l-139 399l-135 -492zM1845 217l-872 -270l223 299l-63 221l-324 -25l-94 -258l141 -110l-948 -68l231 172l307 1194l-174 113l1176 -39l-274 -98l481 -1074zM1210 1556l-379 242l-385 -242l221 465h314z" />
    <glyph glyph-name="Atilde" unicode="&#xc3;" horiz-adv-x="1741" 
d="M1038 791l-139 399l-135 -492zM1845 217l-872 -270l223 299l-63 221l-324 -25l-94 -258l141 -110l-948 -68l231 172l307 1194l-174 113l1176 -39l-274 -98l481 -1074zM1386 1960q-11 -70 -45 -130.5t-96 -117.5q-69 -64 -141.5 -100.5t-129.5 -36.5q-62 0 -132 67l-7 7
q-4 4 -12 11q-61 60 -127 60q-89 0 -161 -37t-126 -110q59 166 169.5 273.5t213.5 107.5q65 0 125 -65q6 -6 10 -11q6 -5 16 -16q63 -66 140 -66q101 0 175.5 40.5t127.5 123.5z" />
    <glyph glyph-name="Adieresis" unicode="&#xc4;" horiz-adv-x="1741" 
d="M1038 791l-139 399l-135 -492zM1845 217l-872 -270l223 299l-63 221l-324 -25l-94 -258l141 -110l-948 -68l231 172l307 1194l-174 113l1176 -39l-274 -98l481 -1074zM794 1759q0 -76 -79.5 -126t-204.5 -50t-205 50t-80 126t80.5 128t204.5 52q123 0 203.5 -52
t80.5 -128zM1427 1759q0 -76 -79 -126t-204 -50q-124 0 -204 50t-80 126q0 77 80 128.5t204 51.5q123 0 203 -51.5t80 -128.5z" />
    <glyph glyph-name="Aring" unicode="&#xc5;" horiz-adv-x="1741" 
d="M1092 1817q0 53 -62 89t-160 36q-97 0 -159 -36t-62 -89q0 -54 62 -89.5t159 -35.5t159.5 35.5t62.5 89.5zM1276 1817q0 -101 -114.5 -169.5t-291.5 -68.5t-291 68t-114 170q0 101 114.5 169t290.5 68t291 -68.5t115 -168.5zM1038 791l-139 399l-135 -492zM1845 217
l-872 -270l223 299l-63 221l-324 -25l-94 -258l141 -110l-948 -74l231 178l307 1194l-174 113l1176 -39l-274 -98l481 -1074z" />
    <glyph glyph-name="AE" unicode="&#xc6;" horiz-adv-x="2206" 
d="M881 793l-148 403l-137 -475zM2177 588l-59 -635l-1284 53l184 230l-53 227l-318 -21l-69 -260l172 -104l-834 -72l234 176l153 1188l-180 115l1020 -66l887 66l98 -393l-176 192l-516 -102l-41 -308l366 99l86 147l49 -694l-106 205l-301 16l-127 -362l575 -70z" />
    <glyph glyph-name="Ccedilla" unicode="&#xc7;" horiz-adv-x="1610" 
d="M758 -35l-41 -90q25 10 56 14t77 5q159 0 257.5 -62.5t98.5 -161.5q0 -102 -95 -164.5t-255 -62.5q-85 0 -159.5 26t-139.5 78l-61 -51l63 232q49 -74 99 -110t104 -36q58 0 89.5 24t31.5 68q0 56 -42.5 86.5t-117.5 30.5q-43 0 -81 -7t-73 -22l72 211
q-68 11 -130.5 36.5t-119.5 64.5q-158 107 -251 279t-93 358q0 205 87 374.5t247 276.5q106 71 229.5 106t266.5 35q132 0 245.5 -41t212.5 -125l58 166l102 -547q-66 96 -156 145.5t-194 49.5q-120 0 -193 -70.5t-73 -185.5q0 -122 91 -204.5t228 -82.5q84 0 175 29.5
t196 89.5l-107 -694l-41 284q-141 -167 -307.5 -255.5t-355.5 -96.5z" />
    <glyph glyph-name="Egrave" unicode="&#xc8;" horiz-adv-x="1661" 
d="M1626 616l-90 -661l-1647 72l433 151l-154 1098l-279 108l1567 107l98 -459l-163 168l-482 -2l-73 -305l344 80l102 157l39 -692l-109 172l-305 41l-121 -325l574 -72zM907 1567l-600 450h424z" />
    <glyph glyph-name="Eacute" unicode="&#xc9;" horiz-adv-x="1661" 
d="M1626 616l-90 -661l-1647 72l433 151l-154 1098l-279 108l1567 107l98 -459l-163 168l-482 -2l-73 -305l344 80l102 157l39 -692l-109 172l-305 41l-121 -325l574 -72zM1339 2017l-600 -450l176 450h424z" />
    <glyph glyph-name="Ecircumflex" unicode="&#xca;" horiz-adv-x="1661" 
d="M1626 616l-90 -661l-1647 72l433 151l-154 1098l-279 108l1567 107l98 -459l-163 168l-482 -2l-73 -305l344 80l102 157l39 -692l-109 172l-305 41l-121 -325l574 -72zM1163 1556l-379 242l-385 -242l221 465h314z" />
    <glyph glyph-name="Edieresis" unicode="&#xcb;" horiz-adv-x="1661" 
d="M1626 616l-90 -661l-1647 72l433 151l-154 1098l-279 108l1567 107l98 -459l-163 168l-482 -2l-73 -305l344 80l102 157l39 -692l-109 172l-305 41l-121 -325l574 -72zM747 1759q0 -76 -79.5 -126t-204.5 -50t-205 50t-80 126t80.5 128t204.5 52q123 0 203.5 -52
t80.5 -128zM1380 1759q0 -76 -79 -126t-204 -50q-124 0 -204 50t-80 126q0 77 80 128.5t204 51.5q123 0 203 -51.5t80 -128.5z" />
    <glyph glyph-name="Igrave" unicode="&#xcc;" horiz-adv-x="1108" 
d="M1249 51l-1226 -119l206 154l99 1118l-351 269l1207 -101l-449 -129l203 -995zM682 1567l-600 450h424z" />
    <glyph glyph-name="Iacute" unicode="&#xcd;" horiz-adv-x="1108" 
d="M1249 51l-1226 -119l206 154l99 1118l-351 269l1207 -101l-449 -129l203 -995zM1114 2017l-600 -450l176 450h424z" />
    <glyph glyph-name="Icircumflex" unicode="&#xce;" horiz-adv-x="1108" 
d="M1249 51l-1226 -119l206 154l99 1118l-351 269l1207 -101l-449 -129l203 -995zM938 1556l-379 242l-385 -242l221 465h314z" />
    <glyph glyph-name="Idieresis" unicode="&#xcf;" horiz-adv-x="1108" 
d="M1249 51l-1226 -119l206 154l99 1118l-351 269l1207 -101l-449 -129l203 -995zM522 1759q0 -76 -79.5 -126t-204.5 -50t-205 50t-80 126t80.5 128t204.5 52q123 0 203.5 -52t80.5 -128zM1155 1759q0 -76 -79 -126t-204 -50q-124 0 -204 50t-80 126q0 77 80 128.5
t204 51.5q123 0 203 -51.5t80 -128.5z" />
    <glyph glyph-name="Eth" unicode="&#xd0;" horiz-adv-x="1612" 
d="M635 745l-29 -256q191 72 293 174t102 220q0 101 -79.5 188.5t-233.5 155.5l-37 -332l295 -61zM268 705l-159 -33l-68 -156l-37 537l86 -101l150 -22l-52 391l-272 182l1034 -110q286 -31 450.5 -202t164.5 -435q0 -330 -234.5 -520.5t-675.5 -221.5l-739 -49l428 160z
" />
    <glyph glyph-name="Ntilde" unicode="&#xd1;" horiz-adv-x="1929" 
d="M1954 1360l-156 -68l-160 -1171l226 -90l-523 -41l-727 1034l250 -938l264 -145l-1116 104l170 115l72 1102l-242 98l840 119l514 -1119l-90 971l-162 109zM1524 1960q-11 -70 -45 -130.5t-96 -117.5q-69 -64 -141.5 -100.5t-129.5 -36.5q-62 0 -132 67l-7 7q-4 4 -12 11
q-61 60 -127 60q-89 0 -161 -37t-126 -110q59 166 169.5 273.5t213.5 107.5q65 0 125 -65q6 -6 10 -11q6 -5 16 -16q63 -66 140 -66q101 0 175.5 40.5t127.5 123.5z" />
    <glyph glyph-name="Ograve" unicode="&#xd2;" horiz-adv-x="1712" 
d="M905 1229q-29 -43 -44 -91t-15 -98q0 -90 68.5 -155.5t162.5 -65.5q74 0 140.5 40t95.5 102q-72 124 -176.5 193t-231.5 75zM1665 707q0 -108 -27 -201.5t-82 -173.5q-116 -170 -319 -270.5t-430 -100.5q-121 0 -227.5 31t-196.5 92q-160 108 -248 269.5t-88 348.5
q0 143 55 272t160 232q129 128 300.5 197.5t359.5 69.5q118 0 220.5 -29.5t188.5 -87.5q154 -104 244 -279.5t90 -369.5zM983 1567l-600 450h424z" />
    <glyph glyph-name="Oacute" unicode="&#xd3;" horiz-adv-x="1712" 
d="M905 1229q-29 -43 -44 -91t-15 -98q0 -90 68.5 -155.5t162.5 -65.5q74 0 140.5 40t95.5 102q-72 124 -176.5 193t-231.5 75zM1665 707q0 -108 -27 -201.5t-82 -173.5q-116 -170 -319 -270.5t-430 -100.5q-121 0 -227.5 31t-196.5 92q-160 108 -248 269.5t-88 348.5
q0 143 55 272t160 232q129 128 300.5 197.5t359.5 69.5q118 0 220.5 -29.5t188.5 -87.5q154 -104 244 -279.5t90 -369.5zM1415 2017l-600 -450l176 450h424z" />
    <glyph glyph-name="Ocircumflex" unicode="&#xd4;" horiz-adv-x="1712" 
d="M905 1229q-29 -43 -44 -91t-15 -98q0 -90 68.5 -155.5t162.5 -65.5q74 0 140.5 40t95.5 102q-72 124 -176.5 193t-231.5 75zM1665 707q0 -108 -27 -201.5t-82 -173.5q-116 -170 -319 -270.5t-430 -100.5q-121 0 -227.5 31t-196.5 92q-160 108 -248 269.5t-88 348.5
q0 143 55 272t160 232q129 128 300.5 197.5t359.5 69.5q118 0 220.5 -29.5t188.5 -87.5q154 -104 244 -279.5t90 -369.5zM1239 1556l-379 242l-385 -242l221 465h314z" />
    <glyph glyph-name="Otilde" unicode="&#xd5;" horiz-adv-x="1712" 
d="M905 1229q-29 -43 -44 -91t-15 -98q0 -90 68.5 -155.5t162.5 -65.5q74 0 140.5 40t95.5 102q-72 124 -176.5 193t-231.5 75zM1665 707q0 -108 -27 -201.5t-82 -173.5q-116 -170 -319 -270.5t-430 -100.5q-121 0 -227.5 31t-196.5 92q-160 108 -248 269.5t-88 348.5
q0 143 55 272t160 232q129 128 300.5 197.5t359.5 69.5q118 0 220.5 -29.5t188.5 -87.5q154 -104 244 -279.5t90 -369.5zM1415 1960q-11 -70 -45 -130.5t-96 -117.5q-69 -64 -141.5 -100.5t-129.5 -36.5q-62 0 -132 67l-7 7q-4 4 -12 11q-61 60 -127 60q-89 0 -161 -37
t-126 -110q59 166 169.5 273.5t213.5 107.5q65 0 125 -65q6 -6 10 -11q6 -5 16 -16q63 -66 140 -66q101 0 175.5 40.5t127.5 123.5z" />
    <glyph glyph-name="Odieresis" unicode="&#xd6;" horiz-adv-x="1712" 
d="M905 1229q-29 -43 -44 -91t-15 -98q0 -90 68.5 -155.5t162.5 -65.5q74 0 140.5 40t95.5 102q-72 124 -176.5 193t-231.5 75zM1665 707q0 -108 -27 -201.5t-82 -173.5q-116 -170 -319 -270.5t-430 -100.5q-121 0 -227.5 31t-196.5 92q-160 108 -248 269.5t-88 348.5
q0 143 55 272t160 232q129 128 300.5 197.5t359.5 69.5q118 0 220.5 -29.5t188.5 -87.5q154 -104 244 -279.5t90 -369.5zM823 1759q0 -76 -79.5 -126t-204.5 -50t-205 50t-80 126t80.5 128t204.5 52q123 0 203.5 -52t80.5 -128zM1456 1759q0 -76 -79 -126t-204 -50
q-124 0 -204 50t-80 126q0 77 80 128.5t204 51.5q123 0 203 -51.5t80 -128.5z" />
    <glyph glyph-name="multiply" unicode="&#xd7;" horiz-adv-x="1706" 
d="M430 1214l440 -440l441 440l162 -161l-441 -443l441 -440l-162 -162l-441 441l-440 -441l-162 162l441 440l-441 443z" />
    <glyph glyph-name="Oslash" unicode="&#xd8;" horiz-adv-x="1712" 
d="M905 1229q-29 -43 -44 -91t-15 -98q0 -90 68.5 -155.5t162.5 -65.5q74 0 140.5 40t95.5 102q-72 124 -176.5 193t-231.5 75zM524 12l-92 -153l68 -156l-498 346l207 47l59 82q-110 113 -165.5 245t-55.5 279q0 143 55 272t160 232q129 128 302 197.5t362 69.5
q75 0 144 -12.5t132 -37.5l103 144l-62 205l399 -379l-190 39l-70 -113q136 -114 209.5 -274.5t73.5 -342.5q0 -103 -27 -195.5t-82 -172.5q-117 -172 -319 -272.5t-432 -100.5q-74 0 -143.5 13t-137.5 38z" />
    <glyph glyph-name="Ugrave" unicode="&#xd9;" horiz-adv-x="1726" 
d="M1698 1434l-355 -195q161 -110 245.5 -258t84.5 -317q0 -87 -25 -166.5t-75 -149.5q-126 -175 -341 -280t-448 -105q-140 0 -273 57t-239 162q-104 106 -160.5 238t-56.5 270q0 185 109 345t332 302l-414 54l850 114q-148 -112 -228.5 -240.5t-80.5 -250.5
q0 -120 80.5 -199.5t201.5 -79.5q111 0 184.5 83.5t73.5 209.5q0 87 -35.5 163t-105.5 140zM991 1567l-600 450h424z" />
    <glyph glyph-name="Uacute" unicode="&#xda;" horiz-adv-x="1726" 
d="M1698 1434l-355 -195q161 -110 245.5 -258t84.5 -317q0 -87 -25 -166.5t-75 -149.5q-126 -175 -341 -280t-448 -105q-140 0 -273 57t-239 162q-104 106 -160.5 238t-56.5 270q0 185 109 345t332 302l-414 54l850 114q-148 -112 -228.5 -240.5t-80.5 -250.5
q0 -120 80.5 -199.5t201.5 -79.5q111 0 184.5 83.5t73.5 209.5q0 87 -35.5 163t-105.5 140zM1423 2017l-600 -450l176 450h424z" />
    <glyph glyph-name="Ucircumflex" unicode="&#xdb;" horiz-adv-x="1726" 
d="M1698 1434l-355 -195q161 -110 245.5 -258t84.5 -317q0 -87 -25 -166.5t-75 -149.5q-126 -175 -341 -280t-448 -105q-140 0 -273 57t-239 162q-104 106 -160.5 238t-56.5 270q0 185 109 345t332 302l-414 54l850 114q-148 -112 -228.5 -240.5t-80.5 -250.5
q0 -120 80.5 -199.5t201.5 -79.5q111 0 184.5 83.5t73.5 209.5q0 87 -35.5 163t-105.5 140zM1247 1556l-379 242l-385 -242l221 465h314z" />
    <glyph glyph-name="Udieresis" unicode="&#xdc;" horiz-adv-x="1726" 
d="M1698 1434l-355 -195q161 -110 245.5 -258t84.5 -317q0 -87 -25 -166.5t-75 -149.5q-126 -175 -341 -280t-448 -105q-140 0 -273 57t-239 162q-104 106 -160.5 238t-56.5 270q0 185 109 345t332 302l-414 54l850 114q-148 -112 -228.5 -240.5t-80.5 -250.5
q0 -120 80.5 -199.5t201.5 -79.5q111 0 184.5 83.5t73.5 209.5q0 87 -35.5 163t-105.5 140zM831 1759q0 -76 -79.5 -126t-204.5 -50t-205 50t-80 126t80.5 128t204.5 52q123 0 203.5 -52t80.5 -128zM1464 1759q0 -76 -79 -126t-204 -50q-124 0 -204 50t-80 126
q0 77 80 128.5t204 51.5q123 0 203 -51.5t80 -128.5z" />
    <glyph glyph-name="Yacute" unicode="&#xdd;" horiz-adv-x="1839" 
d="M1978 1333l-219 -110l-626 -705l100 -473l254 -115l-1233 68l240 117l122 448l-534 762l-211 66l1044 82l-178 -115l269 -610l229 532l-176 90zM1479 2017l-600 -450l176 450h424z" />
    <glyph glyph-name="Thorn" unicode="&#xde;" horiz-adv-x="1661" 
d="M578 637q134 57 218.5 157.5t84.5 196.5q0 55 -21 81t-65 26q-32 0 -61.5 -8.5t-63.5 -28.5zM-23 1358l908 135l-162 -211q46 10 95.5 15.5t105.5 5.5q350 0 526 -134.5t176 -402.5q0 -229 -153 -370.5t-402 -141.5q-136 0 -250.5 30t-197.5 87l63 -240l328 -199
l-1008 95l141 100l146 1094z" />
    <glyph glyph-name="germandbls" unicode="&#xdf;" horiz-adv-x="1630" 
d="M25 -35l223 160q-104 135 -156.5 283t-52.5 307q0 165 57 310t162 251q109 108 260 163.5t334 55.5q290 0 464.5 -100t174.5 -262q0 -80 -56.5 -146.5t-160.5 -107.5q160 -38 244 -126t84 -218q0 -237 -217 -397.5t-564 -170.5q-59 118 -96.5 222.5t-52.5 197.5
q155 3 236 57t81 156q0 69 -47.5 116.5t-118.5 47.5q-59 0 -109.5 -25t-92.5 -75q-8 29 -11.5 60.5t-3.5 66.5q0 48 7.5 91.5t23.5 81.5q12 0 25 -0.5t34 -0.5q96 0 160 48.5t64 121.5q0 58 -48 97.5t-118 39.5q-147 0 -238.5 -142.5t-91.5 -375.5q0 -145 51 -331t148 -396z
" />
    <glyph glyph-name="agrave" unicode="&#xe0;" horiz-adv-x="1292" 
d="M580 821q-26 -30 -38 -64t-12 -79q0 -88 57.5 -147.5t141.5 -59.5q30 0 62 12.5t65 36.5q-64 118 -133.5 193.5t-142.5 107.5zM1280 1030l-147 -67l30 -838l115 -88l-440 -55l75 305q-92 -151 -212.5 -228t-262.5 -77q-170 0 -286.5 139.5t-116.5 345.5q0 263 125 432.5
t315 169.5q144 0 253.5 -75.5t184.5 -225.5l-63 309zM774 1141l-600 450h424z" />
    <glyph glyph-name="aacute" unicode="&#xe1;" horiz-adv-x="1292" 
d="M580 821q-26 -30 -38 -64t-12 -79q0 -88 57.5 -147.5t141.5 -59.5q30 0 62 12.5t65 36.5q-64 118 -133.5 193.5t-142.5 107.5zM1280 1030l-147 -67l30 -838l115 -88l-440 -55l75 305q-92 -151 -212.5 -228t-262.5 -77q-170 0 -286.5 139.5t-116.5 345.5q0 263 125 432.5
t315 169.5q144 0 253.5 -75.5t184.5 -225.5l-63 309zM1206 1591l-600 -450l176 450h424z" />
    <glyph glyph-name="acircumflex" unicode="&#xe2;" horiz-adv-x="1292" 
d="M580 821q-26 -30 -38 -64t-12 -79q0 -88 57.5 -147.5t141.5 -59.5q30 0 62 12.5t65 36.5q-64 118 -133.5 193.5t-142.5 107.5zM1280 1030l-147 -67l30 -838l115 -88l-440 -55l75 305q-92 -151 -212.5 -228t-262.5 -77q-170 0 -286.5 139.5t-116.5 345.5q0 263 125 432.5
t315 169.5q144 0 253.5 -75.5t184.5 -225.5l-63 309zM1030 1130l-379 242l-385 -242l221 465h314z" />
    <glyph glyph-name="atilde" unicode="&#xe3;" horiz-adv-x="1292" 
d="M580 821q-26 -30 -38 -64t-12 -79q0 -88 57.5 -147.5t141.5 -59.5q30 0 62 12.5t65 36.5q-64 118 -133.5 193.5t-142.5 107.5zM1280 1030l-147 -67l30 -838l115 -88l-440 -55l75 305q-92 -151 -212.5 -228t-262.5 -77q-170 0 -286.5 139.5t-116.5 345.5q0 263 125 432.5
t315 169.5q144 0 253.5 -75.5t184.5 -225.5l-63 309zM1206 1534q-11 -70 -45 -130.5t-96 -117.5q-69 -64 -141.5 -100.5t-129.5 -36.5q-62 0 -132 67l-7 7q-4 4 -12 11q-61 60 -127 60q-89 0 -161 -37t-126 -110q59 166 169.5 273.5t213.5 107.5q65 0 125 -65q6 -6 10 -11
q6 -5 16 -16q63 -66 140 -66q101 0 175.5 40.5t127.5 123.5z" />
    <glyph glyph-name="adieresis" unicode="&#xe4;" horiz-adv-x="1292" 
d="M580 821q-26 -30 -38 -64t-12 -79q0 -88 57.5 -147.5t141.5 -59.5q30 0 62 12.5t65 36.5q-64 118 -133.5 193.5t-142.5 107.5zM1280 1030l-147 -67l30 -838l115 -88l-440 -55l75 305q-92 -151 -212.5 -228t-262.5 -77q-170 0 -286.5 139.5t-116.5 345.5q0 263 125 432.5
t315 169.5q144 0 253.5 -75.5t184.5 -225.5l-63 309zM614 1333q0 -76 -79.5 -126t-204.5 -50t-205 50t-80 126t80.5 128t204.5 52q123 0 203.5 -52t80.5 -128zM1247 1333q0 -76 -79 -126t-204 -50q-124 0 -204 50t-80 126q0 77 80 128.5t204 51.5q123 0 203 -51.5t80 -128.5
z" />
    <glyph glyph-name="aring" unicode="&#xe5;" horiz-adv-x="1292" 
d="M862 1374q0 52 -60.5 86.5t-154.5 34.5t-155.5 -34.5t-61.5 -86.5t61.5 -87.5t155.5 -35.5t154.5 35.5t60.5 87.5zM1040 1374q0 -98 -110.5 -164.5t-282.5 -66.5q-173 0 -284 66t-111 165q0 98 111.5 164t283.5 66q171 0 282 -66t111 -164zM580 821q-26 -30 -38 -64
t-12 -79q0 -88 57.5 -147.5t141.5 -59.5q30 0 62 12.5t65 36.5q-64 118 -133.5 193.5t-142.5 107.5zM1280 1030l-147 -67l30 -838l115 -88l-440 -55l75 305q-92 -151 -212.5 -228t-262.5 -77q-170 0 -286.5 139.5t-116.5 345.5q0 263 125 432.5t315 169.5q144 0 253.5 -75.5
t184.5 -225.5l-63 309z" />
    <glyph glyph-name="ae" unicode="&#xe6;" horiz-adv-x="2339" 
d="M580 821q-26 -30 -38 -64t-12 -79q0 -88 57.5 -147.5t141.5 -59.5q30 0 61.5 12t65.5 37q-65 121 -136 197.5t-140 103.5zM1335 690q33 -26 75.5 -40.5t88.5 -14.5q79 0 128.5 45.5t49.5 118.5q0 35 -9.5 62.5t-31.5 53.5q-106 -17 -181.5 -73t-119.5 -152zM2327 -27
l-89 162q-128 -79 -256.5 -118.5t-263.5 -39.5q-192 0 -348 79t-231 214l-4 -184l118 -109h-403l76 299q-88 -143 -209 -221t-256 -78q-187 0 -305.5 139.5t-118.5 360.5q0 257 129.5 425.5t322.5 168.5q126 0 235.5 -74.5t203.5 -224.5l-68 299l420 4l-143 -127l4 -252
q44 169 193.5 272t355.5 103q237 0 392.5 -107.5t155.5 -265.5q0 -165 -139.5 -273t-359.5 -108q-54 0 -103 7.5t-92 21.5q89 -62 181.5 -92.5t195.5 -30.5q104 0 197.5 50.5t173.5 150.5z" />
    <glyph glyph-name="ccedilla" unicode="&#xe7;" horiz-adv-x="1186" 
d="M547 -20l-39 -84q24 9 55.5 13.5t75.5 4.5q154 0 249 -60.5t95 -156.5q0 -100 -91.5 -159.5t-248.5 -59.5q-84 0 -156 25t-133 75l-59 -49l61 223q48 -72 95.5 -106.5t99.5 -34.5q55 0 85 23.5t30 66.5q0 54 -39.5 83.5t-112.5 29.5q-39 0 -76.5 -7t-70.5 -20l69 207
q-194 50 -296.5 172.5t-102.5 304.5q0 126 45 240.5t127 195.5q75 75 169.5 113.5t205.5 38.5q110 0 209.5 -39.5t197.5 -122.5l41 176l58 -442q-38 42 -85.5 64t-101.5 22q-74 0 -123 -50t-49 -126q0 -75 55.5 -129t131.5 -54q52 0 99.5 26.5t102.5 86.5l49 -500l-110 222
q-115 -108 -233 -160.5t-244 -52.5h-35z" />
    <glyph glyph-name="egrave" unicode="&#xe8;" horiz-adv-x="1294" 
d="M283 690q32 -26 75 -40.5t88 -14.5q79 0 129 46t50 118q0 35 -10 63t-31 53q-107 -16 -182.5 -72.5t-118.5 -152.5zM1278 -23l-90 166q-133 -84 -266 -125t-275 -41q-277 0 -443.5 137.5t-166.5 364.5q0 120 45.5 231.5t128.5 194.5q80 80 185.5 121t232.5 41
q243 0 401 -105t158 -264q0 -160 -145.5 -268t-364.5 -108q-54 0 -101 8.5t-90 25.5q94 -64 184.5 -94.5t186.5 -30.5q117 0 215 52t168 151zM774 1141l-600 450h424z" />
    <glyph glyph-name="eacute" unicode="&#xe9;" horiz-adv-x="1294" 
d="M283 690q32 -26 75 -40.5t88 -14.5q79 0 129 46t50 118q0 35 -10 63t-31 53q-107 -16 -182.5 -72.5t-118.5 -152.5zM1278 -23l-90 166q-133 -84 -266 -125t-275 -41q-277 0 -443.5 137.5t-166.5 364.5q0 120 45.5 231.5t128.5 194.5q80 80 185.5 121t232.5 41
q243 0 401 -105t158 -264q0 -160 -145.5 -268t-364.5 -108q-54 0 -101 8.5t-90 25.5q94 -64 184.5 -94.5t186.5 -30.5q117 0 215 52t168 151zM1206 1591l-600 -450l176 450h424z" />
    <glyph glyph-name="ecircumflex" unicode="&#xea;" horiz-adv-x="1294" 
d="M283 690q32 -26 75 -40.5t88 -14.5q79 0 129 46t50 118q0 35 -10 63t-31 53q-107 -16 -182.5 -72.5t-118.5 -152.5zM1278 -23l-90 166q-133 -84 -266 -125t-275 -41q-277 0 -443.5 137.5t-166.5 364.5q0 120 45.5 231.5t128.5 194.5q80 80 185.5 121t232.5 41
q243 0 401 -105t158 -264q0 -160 -145.5 -268t-364.5 -108q-54 0 -101 8.5t-90 25.5q94 -64 184.5 -94.5t186.5 -30.5q117 0 215 52t168 151zM1030 1130l-379 242l-385 -242l221 465h314z" />
    <glyph glyph-name="edieresis" unicode="&#xeb;" horiz-adv-x="1294" 
d="M283 690q32 -26 75 -40.5t88 -14.5q79 0 129 46t50 118q0 35 -10 63t-31 53q-107 -16 -182.5 -72.5t-118.5 -152.5zM1278 -23l-90 166q-133 -84 -266 -125t-275 -41q-277 0 -443.5 137.5t-166.5 364.5q0 120 45.5 231.5t128.5 194.5q80 80 185.5 121t232.5 41
q243 0 401 -105t158 -264q0 -160 -145.5 -268t-364.5 -108q-54 0 -101 8.5t-90 25.5q94 -64 184.5 -94.5t186.5 -30.5q117 0 215 52t168 151zM614 1333q0 -76 -79.5 -126t-204.5 -50t-205 50t-80 126t80.5 128t204.5 52q123 0 203.5 -52t80.5 -128zM1247 1333
q0 -76 -79 -126t-204 -50q-124 0 -204 50t-80 126q0 77 80 128.5t204 51.5q123 0 203 -51.5t80 -128.5z" />
    <glyph glyph-name="igrave" unicode="&#xec;" horiz-adv-x="924" 
d="M979 12l-1036 -32l223 90l70 852l-273 108l998 37l-320 -113l125 -876zM590 1141l-600 450h424z" />
    <glyph glyph-name="iacute" unicode="&#xed;" horiz-adv-x="924" 
d="M979 12l-1036 -32l223 90l70 852l-273 108l998 37l-320 -113l125 -876zM1022 1591l-600 -450l176 450h424z" />
    <glyph glyph-name="icircumflex" unicode="&#xee;" horiz-adv-x="924" 
d="M979 12l-1036 -32l223 90l70 852l-273 108l998 37l-320 -113l125 -876zM846 1130l-379 242l-385 -242l221 465h314z" />
    <glyph glyph-name="idieresis" unicode="&#xef;" horiz-adv-x="924" 
d="M979 12l-1036 -32l223 90l70 852l-273 108l998 37l-320 -113l125 -876zM430 1333q0 -76 -79.5 -126t-204.5 -50t-205 50t-80 126t80.5 128t204.5 52q123 0 203.5 -52t80.5 -128zM1063 1333q0 -76 -79 -126t-204 -50q-124 0 -204 50t-80 126q0 77 80 128.5t204 51.5
q123 0 203 -51.5t80 -128.5z" />
    <glyph glyph-name="eth" unicode="&#xf0;" horiz-adv-x="1233" 
d="M266 635q30 -38 69.5 -56t92.5 -18q91 0 154 56.5t63 136.5q0 31 -10 56t-31 48q-122 -35 -206 -90.5t-132 -132.5zM825 1403l254 123l150 -283l-135 105l-152 -70q130 -164 193 -333t63 -353q0 -117 -20.5 -202t-63.5 -148q-82 -124 -215.5 -195.5t-282.5 -71.5
q-252 0 -415.5 151.5t-163.5 383.5q0 214 166.5 351.5t429.5 137.5q44 0 83.5 -4.5t74.5 -13.5q-11 48 -31 95.5t-51 97.5l-254 -115l-144 227l117 -76l180 88q-55 59 -115.5 94t-134.5 52l377 260l-98 -162q56 -35 102 -69t86 -70z" />
    <glyph glyph-name="ntilde" unicode="&#xf1;" horiz-adv-x="1286" 
d="M1233 18l-559 -36q56 63 84 129.5t28 134.5q0 91 -43 150t-108 59q-75 0 -124.5 -61.5t-49.5 -155.5q0 -64 20 -115.5t60 -89.5l-549 -64l125 131l43 822l-164 82l522 57l-121 -244q126 120 245 181t226 61q166 0 265.5 -109.5t99.5 -292.5q0 -144 -51 -287.5
t-150 -279.5zM1202 1534q-11 -70 -45 -130.5t-96 -117.5q-69 -64 -141.5 -100.5t-129.5 -36.5q-62 0 -132 67l-7 7q-4 4 -12 11q-61 60 -127 60q-89 0 -161 -37t-126 -110q59 166 169.5 273.5t213.5 107.5q65 0 125 -65q6 -6 10 -11q6 -5 16 -16q63 -66 140 -66
q101 0 175.5 40.5t127.5 123.5z" />
    <glyph glyph-name="ograve" unicode="&#xf2;" horiz-adv-x="1233" 
d="M266 682q31 -38 70 -56t92 -18q91 0 154 56t63 137q0 32 -10 58t-31 46q-122 -34 -206 -89.5t-132 -133.5zM1196 526q0 -82 -21 -153t-63 -133q-83 -123 -215.5 -194t-280.5 -71q-252 0 -415.5 151.5t-163.5 383.5q0 246 166.5 402.5t429.5 156.5q248 0 405.5 -152
t157.5 -391zM743 1141l-600 450h424z" />
    <glyph glyph-name="oacute" unicode="&#xf3;" horiz-adv-x="1233" 
d="M266 682q31 -38 70 -56t92 -18q91 0 154 56t63 137q0 32 -10 58t-31 46q-122 -34 -206 -89.5t-132 -133.5zM1196 526q0 -82 -21 -153t-63 -133q-83 -123 -215.5 -194t-280.5 -71q-252 0 -415.5 151.5t-163.5 383.5q0 246 166.5 402.5t429.5 156.5q248 0 405.5 -152
t157.5 -391zM1175 1591l-600 -450l176 450h424z" />
    <glyph glyph-name="ocircumflex" unicode="&#xf4;" horiz-adv-x="1233" 
d="M266 682q31 -38 70 -56t92 -18q91 0 154 56t63 137q0 32 -10 58t-31 46q-122 -34 -206 -89.5t-132 -133.5zM1196 526q0 -82 -21 -153t-63 -133q-83 -123 -215.5 -194t-280.5 -71q-252 0 -415.5 151.5t-163.5 383.5q0 246 166.5 402.5t429.5 156.5q248 0 405.5 -152
t157.5 -391zM999 1130l-379 242l-385 -242l221 465h314z" />
    <glyph glyph-name="otilde" unicode="&#xf5;" horiz-adv-x="1233" 
d="M266 682q31 -38 70 -56t92 -18q91 0 154 56t63 137q0 32 -10 58t-31 46q-122 -34 -206 -89.5t-132 -133.5zM1196 526q0 -82 -21 -153t-63 -133q-83 -123 -215.5 -194t-280.5 -71q-252 0 -415.5 151.5t-163.5 383.5q0 246 166.5 402.5t429.5 156.5q248 0 405.5 -152
t157.5 -391zM1175 1534q-11 -70 -45 -130.5t-96 -117.5q-69 -64 -141.5 -100.5t-129.5 -36.5q-62 0 -132 67l-7 7q-4 4 -12 11q-61 60 -127 60q-89 0 -161 -37t-126 -110q59 166 169.5 273.5t213.5 107.5q65 0 125 -65q6 -6 10 -11q6 -5 16 -16q63 -66 140 -66
q101 0 175.5 40.5t127.5 123.5z" />
    <glyph glyph-name="odieresis" unicode="&#xf6;" horiz-adv-x="1233" 
d="M266 682q31 -38 70 -56t92 -18q91 0 154 56t63 137q0 32 -10 58t-31 46q-122 -34 -206 -89.5t-132 -133.5zM1196 526q0 -82 -21 -153t-63 -133q-83 -123 -215.5 -194t-280.5 -71q-252 0 -415.5 151.5t-163.5 383.5q0 246 166.5 402.5t429.5 156.5q248 0 405.5 -152
t157.5 -391zM583 1333q0 -76 -79.5 -126t-204.5 -50t-205 50t-80 126t80.5 128t204.5 52q123 0 203.5 -52t80.5 -128zM1216 1333q0 -76 -79 -126t-204 -50q-124 0 -204 50t-80 126q0 77 80 128.5t204 51.5q123 0 203 -51.5t80 -128.5z" />
    <glyph glyph-name="divide" unicode="&#xf7;" horiz-adv-x="1706" 
d="M854 371q68 0 116 -48.5t48 -117.5q0 -68 -47.5 -116t-116.5 -48t-117.5 48t-48.5 116t49 117t117 49zM254 727h1198v-231h-1198v231zM854 1182q67 0 115.5 -49t48.5 -117t-48.5 -116t-117.5 -48t-116.5 48t-47.5 116t49 117t117 49z" />
    <glyph glyph-name="oslash" unicode="&#xf8;" horiz-adv-x="1233" 
d="M266 682q30 -38 70.5 -56t93.5 -18q91 0 153 55.5t62 137.5q0 32 -10 58t-31 46q-122 -34 -206 -89.5t-132 -133.5zM360 27l-59 -97l55 -127l-403 281l168 37l37 53q-60 72 -89.5 156t-29.5 180q0 246 166.5 402.5t429.5 156.5q46 0 90.5 -6t89.5 -19l64 91l-56 182
l359 -340l-170 35l-29 -47q102 -77 157.5 -191.5t55.5 -249.5q0 -78 -21.5 -150.5t-62.5 -133.5q-83 -123 -215.5 -194t-280.5 -71q-69 0 -132.5 13t-123.5 39z" />
    <glyph glyph-name="ugrave" unicode="&#xf9;" horiz-adv-x="1352" 
d="M1300 1063l-249 -135q124 -95 183.5 -199.5t59.5 -228.5q0 -94 -35.5 -178t-103.5 -150q-98 -97 -235 -149t-295 -52q-249 0 -408.5 133.5t-159.5 337.5q0 137 60.5 262.5t183.5 243.5l-250 49l580 66q-65 -73 -99 -149.5t-34 -149.5q0 -87 40 -135.5t111 -48.5
q83 0 136 57.5t53 148.5q0 57 -21 105t-65 94zM803 1141l-600 450h424z" />
    <glyph glyph-name="uacute" unicode="&#xfa;" horiz-adv-x="1352" 
d="M1300 1063l-249 -135q124 -95 183.5 -199.5t59.5 -228.5q0 -94 -35.5 -178t-103.5 -150q-98 -97 -235 -149t-295 -52q-249 0 -408.5 133.5t-159.5 337.5q0 137 60.5 262.5t183.5 243.5l-250 49l580 66q-65 -73 -99 -149.5t-34 -149.5q0 -87 40 -135.5t111 -48.5
q83 0 136 57.5t53 148.5q0 57 -21 105t-65 94zM1235 1591l-600 -450l176 450h424z" />
    <glyph glyph-name="ucircumflex" unicode="&#xfb;" horiz-adv-x="1352" 
d="M1300 1063l-249 -135q124 -95 183.5 -199.5t59.5 -228.5q0 -94 -35.5 -178t-103.5 -150q-98 -97 -235 -149t-295 -52q-249 0 -408.5 133.5t-159.5 337.5q0 137 60.5 262.5t183.5 243.5l-250 49l580 66q-65 -73 -99 -149.5t-34 -149.5q0 -87 40 -135.5t111 -48.5
q83 0 136 57.5t53 148.5q0 57 -21 105t-65 94zM1059 1130l-379 242l-385 -242l221 465h314z" />
    <glyph glyph-name="udieresis" unicode="&#xfc;" horiz-adv-x="1352" 
d="M1300 1063l-249 -135q124 -95 183.5 -199.5t59.5 -228.5q0 -94 -35.5 -178t-103.5 -150q-98 -97 -235 -149t-295 -52q-249 0 -408.5 133.5t-159.5 337.5q0 137 60.5 262.5t183.5 243.5l-250 49l580 66q-65 -73 -99 -149.5t-34 -149.5q0 -87 40 -135.5t111 -48.5
q83 0 136 57.5t53 148.5q0 57 -21 105t-65 94zM643 1333q0 -76 -79.5 -126t-204.5 -50t-205 50t-80 126t80.5 128t204.5 52q123 0 203.5 -52t80.5 -128zM1276 1333q0 -76 -79 -126t-204 -50q-124 0 -204 50t-80 126q0 77 80 128.5t204 51.5q123 0 203 -51.5t80 -128.5z" />
    <glyph glyph-name="yacute" unicode="&#xfd;" horiz-adv-x="1358" 
d="M1300 1065l-210 -104q108 -223 162.5 -406t54.5 -324q0 -152 -46 -281.5t-133 -223.5q-83 -91 -191 -139t-230 -48q-115 0 -224 26.5t-213 80.5l-178 -111l262 422q92 -109 186 -163t191 -54q129 0 207 82t78 219q0 51 -12 100.5t-35 98.5q-76 -118 -187.5 -179
t-251.5 -61q-206 0 -338.5 117t-132.5 297q0 138 59.5 264.5t188.5 261.5l-256 53l604 70q-68 -81 -104.5 -166t-36.5 -160q0 -79 38.5 -129.5t98.5 -50.5q85 0 139 66t54 172q0 70 -15 127t-47 104zM1239 1591l-600 -450l176 450h424z" />
    <glyph glyph-name="thorn" unicode="&#xfe;" horiz-adv-x="1282" 
d="M416 532q24 -30 52.5 -43.5t68.5 -13.5q78 0 129 59.5t51 151.5q0 41 -12.5 75t-38.5 66q-98 -63 -160.5 -137t-89.5 -158zM309 188l160 -546l139 -64l-608 -43l90 103l49 1619l-137 64l500 166l-113 -670q98 124 210.5 187t236.5 63q175 0 292 -136t117 -341
q0 -141 -47.5 -264.5t-134.5 -212.5q-67 -69 -151.5 -104.5t-180.5 -35.5q-119 0 -219.5 51.5t-202.5 163.5z" />
    <glyph glyph-name="ydieresis" unicode="&#xff;" horiz-adv-x="1358" 
d="M1300 1065l-210 -104q108 -223 162.5 -406t54.5 -324q0 -152 -46 -281.5t-133 -223.5q-83 -91 -191 -139t-230 -48q-115 0 -224 26.5t-213 80.5l-178 -111l262 422q92 -109 186 -163t191 -54q129 0 207 82t78 219q0 51 -12 100.5t-35 98.5q-76 -118 -187.5 -179
t-251.5 -61q-206 0 -338.5 117t-132.5 297q0 138 59.5 264.5t188.5 261.5l-256 53l604 70q-68 -81 -104.5 -166t-36.5 -160q0 -79 38.5 -129.5t98.5 -50.5q85 0 139 66t54 172q0 70 -15 127t-47 104zM647 1333q0 -76 -79.5 -126t-204.5 -50t-205 50t-80 126t80.5 128
t204.5 52q123 0 203.5 -52t80.5 -128zM1280 1333q0 -76 -79 -126t-204 -50q-124 0 -204 50t-80 126q0 77 80 128.5t204 51.5q123 0 203 -51.5t80 -128.5z" />
    <glyph glyph-name="Cacute" unicode="&#x106;" horiz-adv-x="1610" 
d="M1569 727l-107 -694l-41 284q-145 -172 -319.5 -262t-364.5 -90q-125 0 -243 51.5t-213 149.5q-113 114 -173.5 255.5t-60.5 289.5q0 205 87 374.5t247 276.5q107 71 230.5 106t267.5 35q131 0 244 -41t212 -125l58 166l102 -547q-66 96 -156 145.5t-194 49.5
q-120 0 -193 -70.5t-73 -185.5q0 -122 91 -204.5t228 -82.5q84 0 175 29.5t196 89.5zM1390 2017l-600 -450l176 450h424z" />
    <glyph glyph-name="cacute" unicode="&#x107;" horiz-adv-x="1186" 
d="M1169 -29l-110 222q-120 -111 -237.5 -163.5t-246.5 -52.5q-235 0 -386.5 139t-151.5 355q0 126 45 240.5t127 195.5q75 75 169.5 113.5t205.5 38.5q110 0 209.5 -39.5t197.5 -122.5l41 176l58 -442q-38 42 -85.5 64t-101.5 22q-74 0 -123 -50t-49 -126q0 -75 55.5 -129
t131.5 -54q52 0 99.5 26.5t102.5 86.5zM1194 1591l-600 -450l176 450h424z" />
    <glyph glyph-name="Ccaron" unicode="&#x10c;" horiz-adv-x="1610" 
d="M1569 727l-107 -694l-41 284q-145 -172 -319.5 -262t-364.5 -90q-125 0 -243 51.5t-213 149.5q-113 114 -173.5 255.5t-60.5 289.5q0 205 87 374.5t247 276.5q107 71 230.5 106t267.5 35q131 0 244 -41t212 -125l58 166l102 -547q-66 96 -156 145.5t-194 49.5
q-120 0 -193 -70.5t-73 -185.5q0 -122 91 -204.5t228 -82.5q84 0 175 29.5t196 89.5zM1212 2075l-221 -465h-314l-229 465l379 -242z" />
    <glyph glyph-name="ccaron" unicode="&#x10d;" horiz-adv-x="1186" 
d="M1169 -29l-110 222q-120 -111 -237.5 -163.5t-246.5 -52.5q-235 0 -386.5 139t-151.5 355q0 126 45 240.5t127 195.5q75 75 169.5 113.5t205.5 38.5q110 0 209.5 -39.5t197.5 -122.5l41 176l58 -442q-38 42 -85.5 64t-101.5 22q-74 0 -123 -50t-49 -126q0 -75 55.5 -129
t131.5 -54q52 0 99.5 26.5t102.5 86.5zM1016 1649l-221 -465h-314l-229 465l379 -242z" />
    <glyph glyph-name="dcroat" unicode="&#x111;" horiz-adv-x="1290" 
d="M573 831q-21 -22 -32 -53.5t-11 -68.5q0 -88 63 -150.5t148 -62.5q36 0 66.5 13t62.5 42q-52 110 -126.5 180t-170.5 100zM1292 1440l-129 -58l-2 -143l121 -4l66 123l-60 -461l-28 156l-101 10l-8 -957l125 -141l-668 43q-257 17 -414 157.5t-157 352.5q0 224 131 377.5
t321 153.5q124 0 225 -56.5t187 -173.5l-57 285l-240 29l-37 -46l-49 291l72 -121l223 -8l-25 135l-141 109z" />
    <glyph glyph-name="Gbreve" unicode="&#x11e;" horiz-adv-x="1804" 
d="M1774 860l-148 -141l60 -520q-166 -123 -344 -183.5t-373 -60.5q-159 0 -308 46t-274 134q-164 117 -253 279.5t-89 345.5q0 171 79.5 312.5t229.5 238.5q140 91 310.5 136.5t371.5 45.5q149 0 282.5 -35.5t242.5 -103.5l49 135l78 -543q-129 154 -261.5 226.5
t-283.5 72.5q-204 0 -328.5 -135t-124.5 -358q0 -198 115 -321.5t299 -123.5q4 0 25 1.5t36 2.5l88 291l-211 -24l-65 -123l-27 612l103 -143zM1254 1966q58 -32 88 -73t30 -89q0 -96 -113 -163.5t-282 -67.5q-165 0 -280 68.5t-115 162.5q0 48 33 92t94 76q-1 -5 -2 -12
q-2 -14 -2 -18q0 -62 79.5 -107t194.5 -45t195 49.5t80 118.5v8z" />
    <glyph glyph-name="gbreve" unicode="&#x11f;" horiz-adv-x="1339" 
d="M608 864q-26 -29 -39.5 -64t-13.5 -75q0 -86 58 -150.5t132 -64.5q37 0 70.5 15.5t69.5 49.5q-57 113 -125 184t-152 105zM1280 1038l-147 -82q69 -229 104 -419.5t35 -335.5q0 -311 -153.5 -483.5t-430.5 -172.5q-116 0 -228.5 27t-232.5 84l-143 -117l207 426
q89 -101 187.5 -153t203.5 -52q119 0 205 98t86 232q0 52 -11.5 100.5t-35.5 98.5q-89 -143 -197 -210t-250 -67q-188 0 -315 143t-127 355q0 244 134 403.5t337 159.5q112 0 218.5 -57t209.5 -172l-92 229zM949 1540q58 -32 88 -73t30 -89q0 -96 -113 -163.5t-282 -67.5
q-165 0 -280 68.5t-115 162.5q0 48 33 92t94 76q-1 -5 -2 -12q-2 -14 -2 -18q0 -62 79.5 -107t194.5 -45t195 49.5t80 118.5v8z" />
    <glyph glyph-name="Idotaccent" unicode="&#x130;" horiz-adv-x="1108" 
d="M1249 51l-1226 -119l206 154l99 1118l-351 269l1207 -101l-449 -129l203 -995zM870 1759q0 -75 -88.5 -125.5t-226.5 -50.5q-139 0 -227 50t-88 126q0 77 89 128.5t226 51.5t226 -51.5t89 -128.5z" />
    <glyph glyph-name="dotlessi" unicode="&#x131;" horiz-adv-x="924" 
d="M979 12l-1036 -32l223 90l70 852l-273 108l998 37l-320 -113l125 -876z" />
    <glyph glyph-name="Lslash" unicode="&#x141;" horiz-adv-x="1524" 
d="M236 610l-109 -61l-33 -148l-127 455l74 -65l205 53l18 416l-272 81l975 107l-254 -186l51 -275l217 90l16 154l168 -522l-121 122l-245 -38l84 -451l356 182l117 264l157 -876l-131 154l-1351 -74l184 129z" />
    <glyph glyph-name="lslash" unicode="&#x142;" horiz-adv-x="954" 
d="M252 594l-131 -92l-6 -148l-140 455l78 -66l197 66l-8 438l-207 37l784 221l-63 -497l133 69l14 154l109 -522l-97 122l-186 -40l-92 -701l225 -82l-829 -41l227 131z" />
    <glyph glyph-name="OE" unicode="&#x152;" horiz-adv-x="2552" 
d="M902 1229q-30 -43 -45 -91t-15 -98q0 -89 69 -155t162 -66q73 0 140 40t96 102q-75 126 -179 194.5t-228 73.5zM2525 606l-69 -647l-1270 78q-100 -39 -200 -58.5t-200 -19.5q-147 0 -281.5 55.5t-240.5 159.5q-106 106 -161.5 239.5t-55.5 282.5q0 191 89 351.5
t255 269.5q120 79 253.5 120.5t266.5 41.5q91 0 177 -19.5t174 -58.5l1118 78l96 -396l-176 203l-467 -69l-84 -326l350 86l109 160l39 -725l-105 223l-305 22l-129 -366l571 -74z" />
    <glyph glyph-name="oe" unicode="&#x153;" horiz-adv-x="2195" 
d="M266 682q31 -38 70 -56t94 -18q90 0 152.5 56t62.5 137q0 31 -10 56.5t-31 47.5q-122 -34 -206 -89.5t-132 -133.5zM1184 690q33 -26 74.5 -40.5t87.5 -14.5q79 0 128.5 45.5t49.5 118.5q0 35 -10 62.5t-31 53.5q-109 -18 -183.5 -74.5t-115.5 -150.5zM2185 -18l-92 165
q-146 -86 -281.5 -129t-265.5 -43q-139 0 -261 44t-230 135q-109 -93 -216 -136t-227 -43q-251 0 -413 150.5t-162 384.5q0 249 170 405t442 156q130 0 229.5 -46t192.5 -151q65 93 186 145t273 52q237 0 397 -106t160 -258q0 -64 -26 -122t-74 -106q-76 -72 -174.5 -111.5
t-202.5 -39.5q-58 0 -114 7.5t-112 22.5q101 -62 194.5 -92t182.5 -30q105 0 200.5 52t182.5 156z" />
    <glyph glyph-name="Scedilla" unicode="&#x15e;" horiz-adv-x="1690" 
d="M1262 1458l170 -536q-139 120 -249.5 183.5t-181.5 63.5q-53 0 -82.5 -28.5t-29.5 -79.5q0 -64 63.5 -114t198.5 -91q299 -91 404.5 -177.5t105.5 -221.5q0 -218 -214.5 -359t-551.5 -141q-171 0 -341.5 62.5t-313.5 177.5v-240l-179 535q124 -101 244.5 -155t218.5 -54
q106 0 165 45t59 125q0 75 -47.5 119.5t-211.5 95.5q-239 76 -356 180.5t-117 245.5q0 177 156 290t406 113q165 0 322 -59t323 -183zM866 25l-59 -129q25 9 56 13.5t75 4.5q154 0 249 -60.5t95 -156.5q0 -100 -91.5 -159.5t-248.5 -59.5q-84 0 -157 25t-134 75l-59 -49
l61 223q47 -72 95.5 -106.5t101.5 -34.5q55 0 84 23t29 67q0 54 -39.5 83.5t-112.5 29.5q-39 0 -76.5 -7t-70.5 -20l121 358z" />
    <glyph glyph-name="scedilla" unicode="&#x15f;" horiz-adv-x="1251" 
d="M1116 1067l-190 -362q-78 70 -148.5 103.5t-138.5 33.5q-62 0 -96.5 -28t-34.5 -77q0 -89 271 -107q27 -2 42 -3q221 -15 320.5 -81t99.5 -198q0 -164 -161.5 -267.5t-424.5 -103.5q-119 0 -240.5 37t-254.5 113l-166 -147l129 403q98 -87 189.5 -131.5t168.5 -44.5
q64 0 102 33.5t38 91.5q0 60 -40 88.5t-192 52.5q-170 28 -244.5 88t-74.5 168q0 158 129.5 251t349.5 93q124 0 213 -30t166 -97zM602 25l-59 -129q25 9 56 13.5t75 4.5q154 0 249 -60.5t95 -156.5q0 -100 -91.5 -159.5t-248.5 -59.5q-84 0 -157 25t-134 75l-59 -49l61 223
q47 -72 95.5 -106.5t101.5 -34.5q55 0 84 23t29 67q0 54 -39.5 83.5t-112.5 29.5q-39 0 -76.5 -7t-70.5 -20l121 358z" />
    <glyph glyph-name="Scaron" unicode="&#x160;" horiz-adv-x="1690" 
d="M1262 1458l170 -536q-139 120 -249.5 183.5t-181.5 63.5q-53 0 -82.5 -28.5t-29.5 -79.5q0 -64 63.5 -114t198.5 -91q299 -91 404.5 -177.5t105.5 -221.5q0 -218 -214.5 -359t-551.5 -141q-171 0 -341.5 62.5t-313.5 177.5v-240l-179 535q124 -101 244.5 -155t218.5 -54
q106 0 165 45t59 125q0 75 -47.5 119.5t-211.5 95.5q-239 76 -356 180.5t-117 245.5q0 177 156 290t406 113q165 0 322 -59t323 -183zM1122 2075l-221 -465h-314l-229 465l379 -242z" />
    <glyph glyph-name="scaron" unicode="&#x161;" horiz-adv-x="1251" 
d="M1116 1067l-190 -362q-78 70 -148.5 103.5t-138.5 33.5q-62 0 -96.5 -28t-34.5 -77q0 -89 271 -107q27 -2 42 -3q221 -15 320.5 -81t99.5 -198q0 -164 -161.5 -267.5t-424.5 -103.5q-119 0 -240.5 37t-254.5 113l-166 -147l129 403q98 -87 189.5 -131.5t168.5 -44.5
q64 0 102 33.5t38 91.5q0 60 -40 88.5t-192 52.5q-170 28 -244.5 88t-74.5 168q0 158 129.5 251t349.5 93q124 0 213 -30t166 -97zM1008 1649l-221 -465h-314l-229 465l379 -242z" />
    <glyph glyph-name="Ydieresis" unicode="&#x178;" horiz-adv-x="1839" 
d="M1978 1333l-219 -110l-626 -705l100 -473l254 -115l-1233 68l240 117l122 448l-534 762l-211 66l1044 82l-178 -115l269 -610l229 532l-176 90zM887 1759q0 -76 -79.5 -126t-204.5 -50t-205 50t-80 126t80.5 128t204.5 52q123 0 203.5 -52t80.5 -128zM1520 1759
q0 -76 -79 -126t-204 -50q-124 0 -204 50t-80 126q0 77 80 128.5t204 51.5q123 0 203 -51.5t80 -128.5z" />
    <glyph glyph-name="Zcaron" unicode="&#x17d;" horiz-adv-x="1608" 
d="M1583 1376l-1012 -1102l764 218l221 331l-102 -780l-1524 -109l811 1223l-454 -53l-125 -344l-133 737zM1186 2075l-221 -465h-314l-229 465l379 -242z" />
    <glyph glyph-name="zcaron" unicode="&#x17e;" horiz-adv-x="1247" 
d="M1251 981l-716 -750l512 181l153 241l-53 -590l-1145 -104l528 838l-354 -72l-117 -225l-41 565zM1006 1649l-221 -465h-314l-229 465l379 -242z" />
    <glyph glyph-name="florin" unicode="&#x192;" horiz-adv-x="1456" 
d="M1546 1470l-145 -473q-60 85 -129.5 126.5t-149.5 41.5q-88 0 -137 -74.5t-108 -345.5l223 -16l196 170l-88 -625l-116 185l-277 -10q-67 -307 -136 -469.5t-163 -245.5q-62 -56 -153 -85.5t-230 -39.5l-86 -166l-137 494q48 -37 96 -54.5t96 -17.5q140 0 238 523l8 42
l-123 -4l-114 -203l-62 721l148 -156l209 -14q43 224 79.5 347t77.5 192q62 102 152.5 147t236.5 45q135 0 248 -33.5t211 -103.5z" />
    <glyph glyph-name="circumflex" unicode="&#x2c6;" 
d="M895 1130l-379 242l-385 -242l221 465h314z" />
    <glyph glyph-name="caron" unicode="&#x2c7;" 
d="M893 1649l-221 -465h-314l-229 465l379 -242z" />
    <glyph glyph-name="macron" unicode="&#x2c9;" 
d="M856 1491l-27 -215l-598 -107l-63 334z" />
    <glyph glyph-name="breve" unicode="&#x2d8;" 
d="M791 1540q58 -32 88 -73t30 -89q0 -96 -113 -163.5t-282 -67.5q-165 0 -280 68.5t-115 162.5q0 48 33 92t94 76q-1 -5 -2 -12q-2 -14 -2 -18q0 -62 79.5 -107t194.5 -45t195 49.5t80 118.5v8z" />
    <glyph glyph-name="dotaccent" unicode="&#x2d9;" 
d="M827 1333q0 -75 -88.5 -125.5t-226.5 -50.5q-139 0 -227 50t-88 126q0 77 89 128.5t226 51.5t226 -51.5t89 -128.5z" />
    <glyph glyph-name="ring" unicode="&#x2da;" 
d="M727 1374q0 51 -61 86t-154 35q-94 0 -154.5 -34.5t-60.5 -86.5t61 -87.5t154 -35.5t154 35.5t61 87.5zM905 1374q0 -98 -110.5 -164.5t-282.5 -66.5t-282.5 66t-110.5 165q0 98 111 164t282 66q172 0 282.5 -65.5t110.5 -164.5z" />
    <glyph glyph-name="ogonek" unicode="&#x2db;" 
d="M766 39l205 -84q-7 -21 -11 -45t-4 -49q0 -70 39 -115t99 -45q58 0 112.5 40t102.5 118l125 -328l-86 90q-70 -43 -139.5 -64.5t-139.5 -21.5q-153 0 -261 97t-108 233q0 47 16 89.5t50 84.5z" />
    <glyph glyph-name="tilde" unicode="&#x2dc;" 
d="M1071 1534q-11 -70 -45 -130.5t-96 -117.5q-69 -64 -141.5 -100.5t-129.5 -36.5q-62 0 -132 67l-7 7q-4 4 -12 11q-61 60 -127 60q-89 0 -161 -37t-126 -110q59 166 169.5 273.5t213.5 107.5q65 0 125 -65q6 -6 10 -11q6 -5 16 -16q63 -66 140 -66q101 0 175.5 40.5
t127.5 123.5z" />
    <glyph glyph-name="hungarumlaut" unicode="&#x2dd;" 
d="M788 1591l-600 -450l177 450h423zM1311 1591l-600 -450l176 450h424z" />
    <glyph glyph-name="endash" unicode="&#x2013;" horiz-adv-x="780" 
d="M711 860l-27 -307l-551 -107l-63 426z" />
    <glyph glyph-name="emdash" unicode="&#x2014;" horiz-adv-x="1677" 
d="M1608 817l-27 -239l-1479 -136l-32 383z" />
    <glyph glyph-name="quoteleft" unicode="&#x2018;" horiz-adv-x="731" 
d="M539 1712l-119 -461q99 -16 157 -57.5t58 -95.5q0 -63 -78 -109.5t-190 -46.5q-114 0 -192.5 46.5t-78.5 109.5q0 24 12.5 51.5t41.5 64.5z" />
    <glyph glyph-name="quoteright" unicode="&#x2019;" horiz-adv-x="731" 
d="M193 709l118 460q-97 15 -156 57.5t-59 96.5q0 63 78 109.5t191 46.5t191.5 -46.5t78.5 -109.5q0 -25 -12.5 -52.5t-40.5 -64.5z" />
    <glyph glyph-name="quotesinglbase" unicode="&#x201a;" horiz-adv-x="731" 
d="M193 -459l118 461q-99 16 -157 58t-58 96q0 63 78.5 110t190.5 47q113 0 191.5 -47t78.5 -110q0 -25 -12.5 -52.5t-40.5 -64.5z" />
    <glyph glyph-name="quotedblleft" unicode="&#x201c;" horiz-adv-x="1315" 
d="M1122 1712l-118 -461q97 -16 156 -58t59 -95q0 -63 -77.5 -109.5t-191.5 -46.5q-113 0 -192.5 47t-79.5 109q0 23 12.5 50t42.5 66zM539 1712l-119 -461q99 -16 157 -57.5t58 -95.5q0 -63 -78 -109.5t-190 -46.5q-114 0 -192.5 46.5t-78.5 109.5q0 24 12.5 51.5
t41.5 64.5z" />
    <glyph glyph-name="quotedblright" unicode="&#x201d;" horiz-adv-x="1315" 
d="M776 709l119 460q-97 15 -157 58.5t-60 95.5q0 63 78.5 109.5t191.5 46.5t192 -47t79 -109q0 -25 -13 -53t-41 -64zM193 709l118 460q-97 15 -156 57.5t-59 96.5q0 63 78 109.5t191 46.5t191.5 -46.5t78.5 -109.5q0 -25 -12.5 -52.5t-40.5 -64.5z" />
    <glyph glyph-name="quotedblbase" unicode="&#x201e;" horiz-adv-x="1315" 
d="M776 -459l119 461q-98 16 -157.5 58.5t-59.5 95.5q0 62 79 109.5t191 47.5q113 0 192 -47.5t79 -109.5q0 -25 -13 -53t-41 -64zM193 -459l118 461q-99 16 -157 58t-58 96q0 63 78.5 110t190.5 47q113 0 191.5 -47t78.5 -110q0 -25 -12.5 -52.5t-40.5 -64.5z" />
    <glyph glyph-name="dagger" unicode="&#x2020;" horiz-adv-x="1462" 
d="M1423 1112l-43 -668l-75 189l-375 67l-109 -1013l240 -144l-670 23l232 86l-60 1055l-426 -82l-61 -172l-39 612l74 -113l442 -45l-29 508l-192 74l839 27l-167 -121l-52 -486l389 33z" />
    <glyph glyph-name="daggerdbl" unicode="&#x2021;" horiz-adv-x="1462" 
d="M1419 457l-30 -572l-70 152l-455 96l-47 -446l242 -144l-668 23l227 86l-24 487l-453 -98l-65 -154l-37 535l86 -100l459 -27l-27 504l-420 -54l-61 -122l-41 528l80 -107l430 -45l-21 418l-194 74l837 27l-168 -119l-43 -402l402 31l61 115l-33 -574l-73 158l-379 68
l-51 -504l467 12z" />
    <glyph glyph-name="bullet" unicode="&#x2022;" horiz-adv-x="1366" 
d="M682 928q102 0 174 -72t72 -174q0 -103 -71.5 -174.5t-174.5 -71.5t-174.5 71.5t-71.5 174.5t71.5 174.5t174.5 71.5z" />
    <glyph glyph-name="ellipsis" unicode="&#x2026;" horiz-adv-x="2476" 
d="M2347 170q0 -66 -85 -118t-202 -52t-199.5 51.5t-82.5 118.5q0 65 82 113.5t200 48.5q120 0 203.5 -49t83.5 -113zM1522 170q0 -66 -84 -118t-201 -52q-118 0 -201.5 51.5t-83.5 118.5q0 65 82.5 113.5t202.5 48.5q119 0 202 -49t83 -113zM696 170q0 -66 -84 -118
t-200 -52q-118 0 -201.5 51.5t-83.5 118.5q0 65 82.5 113.5t202.5 48.5q119 0 201.5 -49t82.5 -113z" />
    <glyph glyph-name="perthousand" unicode="&#x2030;" horiz-adv-x="2314" 
d="M1997 324q-2 0 -8 1t-9 1q-65 0 -111 -45t-46 -107v-29q81 19 127.5 66.5t46.5 112.5zM2040 883q92 0 141 -79t49 -226q0 -109 -47.5 -225.5t-134.5 -217.5q-56 -66 -120 -102.5t-124 -36.5q-84 0 -135 71t-51 191q0 132 46.5 261.5t129.5 228.5q53 63 119 99t127 36z
M485 1300q-70 -20 -110.5 -66.5t-40.5 -105.5q0 -3 1 -9t1 -9q68 0 112 42.5t44 109.5q-1 8 -2.5 18.5t-4.5 19.5zM530 1479q91 0 142 -80t51 -223q0 -115 -46 -232t-132 -219q-59 -69 -124.5 -107t-123.5 -38q-86 0 -139.5 73.5t-53.5 196.5q0 128 48 256t135 231
q56 67 121 104.5t122 37.5zM1620 1399l-287 -74l-676 -1233l150 -123l-809 131l293 84l762 1159l-199 152zM1343 324q-2 0 -7.5 1t-8.5 1q-66 0 -113 -45.5t-47 -108.5q0 -10 0.5 -15.5t1.5 -10.5q82 19 128 65.5t46 107.5v5zM1386 883q89 0 140 -76.5t51 -210.5
q0 -119 -47 -237t-135 -224q-56 -66 -120.5 -102.5t-123.5 -36.5q-84 0 -135 72t-51 192q0 132 46.5 261.5t129.5 226.5q53 63 118.5 99t126.5 36z" />
    <glyph glyph-name="guilsinglleft" unicode="&#x2039;" horiz-adv-x="1014" 
d="M903 489l-182 -430l-643 603l545 569l274 -287l-502 -219z" />
    <glyph glyph-name="guilsinglright" unicode="&#x203a;" horiz-adv-x="1014" 
d="M936 631l-545 -568l-274 285l501 219l-505 236l180 432z" />
    <glyph glyph-name="franc" unicode="&#x20a3;" horiz-adv-x="2755" 
d="M1577 766l-229 391l-594 -41l71 -328l254 109l107 150l190 -838l-213 295l-358 20l113 -442l202 -133l-1190 84l226 149l123 1002l-349 166l1520 143zM2787 1055l-158 -635q-70 86 -152 128t-179 42q-124 0 -203.5 -80.5t-79.5 -204.5q0 -78 37 -146.5t121 -144.5
l-641 -34l114 94l56 884l-158 66l506 27l-84 -228q113 118 215.5 175t202.5 57q81 0 149 -33.5t115 -95.5z" />
    <glyph glyph-name="trademark" unicode="&#x2122;" horiz-adv-x="598" 
d="M14 1446h209v-49h-73v-195h-60v195h-76v49zM272 1446h84l58 -148l53 148h84v-244h-57v182l-68 -182h-27l-69 182v-182h-58v244z" />
    <glyph glyph-name="Omega" unicode="&#x2126;" horiz-adv-x="1364" 
d="M55 0v301h252q-129 77 -194.5 190t-65.5 259q0 134 48 252.5t141 214.5q87 89 201 135.5t245 46.5t245 -46.5t201 -135.5q93 -96 141 -214.5t48 -252.5q0 -146 -65.5 -259t-194.5 -190h252v-301h-559v276q99 48 156 156.5t57 251.5q0 184 -78.5 297t-202.5 113
q-121 0 -202 -111.5t-81 -282.5q0 -157 55.5 -266t159.5 -158v-276h-559z" />
    <glyph glyph-name="partialdiff" unicode="&#x2202;" horiz-adv-x="1114" 
d="M766 684q21 113 32 206t11 150q0 87 -29.5 148t-68.5 61q-35 0 -132 -93t-180 -93q-48 0 -80 33.5t-32 83.5q0 69 93 125.5t220 56.5q210 0 332.5 -161t122.5 -441q0 -344 -162.5 -564.5t-417.5 -220.5q-182 0 -299 116.5t-117 299.5q0 203 119.5 336t298.5 133
q101 0 170.5 -42.5t118.5 -133.5zM698 532q0 114 -36.5 176t-104.5 62q-96 0 -160.5 -136.5t-64.5 -346.5q0 -116 36.5 -176t106.5 -60q97 0 160 135.5t63 345.5z" />
    <glyph glyph-name="Delta" unicode="&#x2206;" horiz-adv-x="1348" 
d="M459 301h422l-207 698zM18 0l474 1366h360l477 -1366h-1311z" />
    <glyph glyph-name="product" unicode="&#x220f;" horiz-adv-x="1364" 
d="M33 1536h1298v-276h-145v-1496h145v-276h-579v276h125v1496h-390v-1496h123v-276h-577v276h147v1496h-147v276z" />
    <glyph glyph-name="summation" unicode="&#x2211;" horiz-adv-x="1366" 
d="M1290 1536v-543h-311l-39 224h-483l491 -676l-487 -734h497l21 236h330v-555h-1241v367l469 686l-469 626v369h1222z" />
    <glyph glyph-name="minus" unicode="&#x2212;" horiz-adv-x="1706" 
d="M254 729h1198v-235h-1198v235z" />
    <glyph glyph-name="fraction" unicode="&#x2215;" horiz-adv-x="588" 
d="M1083 1399l-286 -74l-676 -1233l147 -123l-807 131l291 84l764 1159l-199 152z" />
    <glyph glyph-name="periodcentered" unicode="&#x2219;" horiz-adv-x="825" 
d="M725 684q0 -72 -92 -128t-221 -56q-130 0 -221 55.5t-91 128.5q0 72 90.5 125t221.5 53t222 -53.5t91 -124.5z" />
    <glyph glyph-name="radical" unicode="&#x221a;" horiz-adv-x="1366" 
d="M1599 1694v-287h-327l-338 -1407h-408l-106 496h-187v286h383l48 -194q8 -33 17 -109t17 -186h19q17 155 44.5 310t65.5 310l191 781h581z" />
    <glyph glyph-name="infinity" unicode="&#x221e;" horiz-adv-x="1364" 
d="M565 694q-37 57 -79.5 86t-88.5 29q-51 0 -83.5 -33t-32.5 -86q0 -45 34.5 -77.5t83.5 -32.5q44 0 85.5 28.5t80.5 85.5zM799 694q40 -58 80.5 -86t85.5 -28q52 0 86 33.5t34 86.5q0 46 -35 78.5t-85 32.5q-44 0 -85 -28.5t-81 -88.5zM688 541q-74 -90 -154.5 -132
t-177.5 -42q-141 0 -231 92t-90 239q0 142 92.5 234t234.5 92q89 0 166.5 -42.5t149.5 -129.5q69 86 150.5 129t175.5 43q144 0 234.5 -92t90.5 -238q0 -145 -92.5 -236t-239.5 -91q-84 0 -161.5 43.5t-147.5 130.5z" />
    <glyph glyph-name="integral" unicode="&#x222b;" 
d="M56 -492l55 328q24 -10 46 -15t40 -5q71 0 100 39t29 151v948v56q0 130 11.5 195t37.5 116q52 105 154 160t245 55q46 0 95 -5t100 -15l-58 -328q-22 9 -43 13.5t-41 4.5q-71 0 -100 -39t-29 -149v-967q0 -147 -13 -225.5t-44 -134.5q-56 -101 -156 -151t-245 -50
q-51 0 -97 4.5t-87 13.5z" />
    <glyph glyph-name="approxequal" unicode="&#x2248;" 
d="M190 231l-176 125q58 152 136.5 225.5t183.5 73.5q67 0 197.5 -55t173.5 -55q36 0 67 22t62 70l176 -125q-56 -149 -136 -223t-186 -74q-73 0 -198.5 54.5t-170.5 54.5q-35 0 -65 -21.5t-64 -71.5zM190 713l-176 125q60 153 138 226t182 73q69 0 198.5 -55.5t172.5 -55.5
q36 0 67 22t62 70l176 -125q-56 -151 -135 -224t-187 -73q-73 0 -198.5 54.5t-170.5 54.5q-35 0 -65 -21.5t-64 -70.5z" />
    <glyph glyph-name="notequal" unicode="&#x2260;" horiz-adv-x="1706" 
d="M1194 1251l168 -137l-135 -168h225v-221h-377l-180 -227h557v-222h-704l-246 -307l-170 137l135 170h-213v222h360l183 227h-543v221h694z" />
    <glyph glyph-name="lessequal" unicode="&#x2264;" horiz-adv-x="1706" 
d="M256 213h1196v-229h-1196v229zM1450 1257v-239l-776 -240l776 -239v-240l-1194 379v201z" />
    <glyph glyph-name="greaterequal" unicode="&#x2265;" horiz-adv-x="1706" 
d="M256 213h1196v-229h-1196v229zM256 1257l1194 -378v-201l-1194 -379v240l778 239l-778 240v239z" />
    <glyph glyph-name="lozenge" unicode="&#x25ca;" horiz-adv-x="2048" 
d="M571 1354q60 -133 87.5 -275.5t27.5 -339.5q0 -196 -27.5 -338.5t-87.5 -275.5q115 58 225.5 85.5t227.5 27.5q118 0 228.5 -27.5t224.5 -85.5q-60 134 -87.5 276.5t-27.5 337.5q0 196 27.5 339t87.5 276q-112 -58 -223 -85.5t-230 -27.5q-118 0 -228.5 27.5t-224.5 85.5
zM410 1436l69 77q137 -82 269 -120.5t276 -38.5t276 38.5t269 120.5l69 -77q-85 -153 -123 -314.5t-38 -382.5t38 -382t123 -314l-69 -80q-139 84 -271 123t-274 39t-274 -39t-271 -123l-69 80q85 153 123 314t38 382q0 220 -38 381t-123 316z" />
    <glyph glyph-name="fi" unicode="&#xf001;" horiz-adv-x="2015" 
d="M2060 1047l-225 -89l-70 -852l273 -108l-998 -37l322 113l-94 647l-477 -74q17 -129 47 -265.5t71 -279.5l199 -90l-891 -39l229 168q-12 57 -47 206t-55 239l-117 -17l-137 -194l-74 635l146 -152l131 12q-12 77 -17.5 137.5t-5.5 108.5q0 189 105 286t311 97
q97 0 190 -27t185 -81l219 108l-233 -399q-25 42 -62.5 64t-85.5 22q-73 0 -104 -57.5t-31 -196.5v-17zM1935 1298q0 -67 -99 -112t-257 -45q-159 0 -257.5 44.5t-98.5 112.5t99 113t257 45q157 0 256.5 -45t99.5 -113z" />
    <glyph glyph-name="fl" unicode="&#xf002;" horiz-adv-x="1952" 
d="M1911 1505l-182 -1415l223 -82l-830 -35l230 125l-27 1002q-84 42 -163 64t-150 22q-132 0 -190 -61t-58 -199v-39l233 10l205 174l-82 -563l-174 172l-160 -25q19 -130 49.5 -268.5t73.5 -284.5l199 -90l-891 -39l229 168q-31 121 -56.5 232.5t-45.5 214.5l-113 -19
l-141 -194l-74 635l146 -152l133 6q-16 122 -20.5 167.5t-4.5 72.5q0 193 138 294t401 101q136 0 261.5 -33t248.5 -100z" />
    <glyph glyph-name="c6237" horiz-adv-x="1094" 
d="M186 0v887h-125v123h971v-123h-125v-887h-157v887h-406v-887h-158z" />
    </font>
</defs>
</svg>
